SplineFontDB: 3.2
FontName: Estedad-FD-Light
FullName: Estedad-FD Light
FamilyName: Estedad-FD Light
Weight: Light
Copyright: Copyright (c) 2020 by Amin Abedi (@aminabedi68)-www.fontamin.com,\nwith Reserved Font Name Estedad.\n\nThis Font Software is licensed under the SIL Open Font License, Version 1.1.
Version: 4.0
ItalicAngle: 0
UnderlinePosition: -680
UnderlineWidth: 125
Ascent: 1638
Descent: 410
InvalidEm: 0
UFOAscent: 1638
UFODescent: -410
LayerCount: 2
Layer: 0 0 "Back" 1
Layer: 1 0 "public.default" 0 "glyphs"
StyleMap: 0x0000
FSType: 0
OS2Version: 0
OS2_WeightWidthSlopeOnly: 0
OS2_UseTypoMetrics: 0
CreationTime: 1585136942
ModificationTime: 1585217259
PfmFamily: 16
TTFWeight: 300
TTFWidth: 5
LineGap: 0
VLineGap: 0
OS2TypoAscent: 2311
OS2TypoAOffset: 0
OS2TypoDescent: -1260
OS2TypoDOffset: 0
OS2TypoLinegap: 0
OS2WinAscent: 2311
OS2WinAOffset: 0
OS2WinDescent: 1260
OS2WinDOffset: 0
HheadAscent: 2311
HheadAOffset: 0
HheadDescent: -1260
HheadDOffset: 0
OS2CapHeight: 1470
OS2XHeight: 1063
OS2Vendor: 'amin'
Lookup: 2 0 0 "Multiple substitution 0" { "Multiple substitution 0 subtable"  } []
Lookup: 2 0 0 "Multiple substitution 1" { "Multiple substitution 1 subtable"  } []
Lookup: 1 9 0 "'fina' Terminal Forms in Arabic lookup 2" { "'fina' Terminal Forms in Arabic lookup 2 subtable"  } ['fina' ('arab' <'FAR ' 'KUR ' 'dflt' > ) ]
Lookup: 1 9 0 "'medi' Medial Forms in Arabic lookup 3" { "'medi' Medial Forms in Arabic lookup 3 subtable"  } ['medi' ('arab' <'FAR ' 'KUR ' 'dflt' > ) ]
Lookup: 1 9 0 "'init' Initial Forms in Arabic lookup 4" { "'init' Initial Forms in Arabic lookup 4 subtable"  } ['init' ('arab' <'FAR ' 'KUR ' 'dflt' > ) ]
Lookup: 4 9 1 "'rlig' Required Ligatures in Arabic lookup 5" { "'rlig' Required Ligatures in Arabic lookup 5 subtable"  } ['rlig' ('arab' <'FAR ' 'KUR ' 'dflt' > ) ]
Lookup: 4 0 1 "'ccmp' Glyph Composition/Decomposition lookup 6" { "'ccmp' Glyph Composition/Decomposition lookup 6 subtable"  } ['rlig' ('arab' <'FAR ' 'KUR ' 'dflt' > ) ]

StartChar: A
Encoding: 65 65 0
GlifName: A_
Width: 1262
VWidth: 0
GlyphClass: 2
Flags: HW
LayerCount: 2
Fore
SplineSet
320 329 m 257
 191 0 l 257
 24 0 l 257
 536 1290 l 257
 728 1290 l 257
 1239 0 l 257
 1071 0 l 257
 942 329 l 257
 320 329 l 257
369 457 m 257
 894 457 l 257
 632 1120 l 257
 369 457 l 257
EndSplineSet
EndChar

StartChar: AE
Encoding: 198 198 1
GlifName: A_E_
Width: 1639
VWidth: 0
GlyphClass: 2
Flags: HW
LayerCount: 2
Fore
SplineSet
772 1155 m 257
 669 1155 l 257
 388 472 l 257
 772 472 l 257
 772 1155 l 257
568 1290 m 257
 1564 1290 l 257
 1564 1155 l 257
 930 1155 l 257
 930 710 l 257
 1510 710 l 257
 1510 580 l 257
 930 580 l 257
 930 134 l 257
 1564 134 l 257
 1564 0 l 257
 772 0 l 257
 772 345 l 257
 336 345 l 257
 194 0 l 257
 27 0 l 257
 568 1290 l 257
EndSplineSet
EndChar

StartChar: B
Encoding: 66 66 8
GlifName: B_
Width: 1229
VWidth: 0
GlyphClass: 2
Flags: HW
LayerCount: 2
Fore
SplineSet
153 1290 m 257
 657 1290 l 258
 877 1290 1064 1154 1064 933 c 256
 1064 811 1002 716 915 662 c 257
 1043 605 1125 486 1125 342 c 256
 1125 126 941 0 718 0 c 258
 153 0 l 257
 153 1290 l 257
310 580 m 257
 310 134 l 257
 718 134 l 258
 859 134 967 200 967 342 c 256
 967 488 851 580 718 580 c 258
 310 580 l 257
657 710 m 258
 795 710 906 790 906 933 c 256
 906 1076 794 1155 657 1155 c 258
 310 1155 l 257
 310 710 l 257
 657 710 l 258
EndSplineSet
EndChar

StartChar: C
Encoding: 67 67 9
GlifName: C_
Width: 1306
VWidth: 0
GlyphClass: 2
Flags: HW
LayerCount: 2
Fore
SplineSet
1069 318 m 257
 1194 248 l 257
 1106 92 944 -21 704 -21 c 256
 312 -21 109 265 109 645 c 256
 109 1025 312 1312 704 1312 c 256
 944 1312 1106 1197 1194 1041 c 257
 1069 972 l 257
 997 1096 887 1176 704 1176 c 256
 411 1176 267 963 267 645 c 256
 267 327 411 114 704 114 c 256
 887 114 997 194 1069 318 c 257
EndSplineSet
EndChar

StartChar: D
Encoding: 68 68 11
GlifName: D_
Width: 1317
VWidth: 0
GlyphClass: 2
Flags: HW
LayerCount: 2
Fore
SplineSet
1193 645 m 256
 1193 272 1001 0 599 0 c 258
 184 0 l 257
 184 1290 l 257
 599 1290 l 258
 1001 1290 1193 1018 1193 645 c 256
1035 645 m 256
 1035 963 903 1155 599 1155 c 258
 342 1155 l 257
 342 134 l 257
 599 134 l 258
 903 134 1035 327 1035 645 c 256
EndSplineSet
EndChar

StartChar: E
Encoding: 69 69 12
GlifName: E_
Width: 1055
VWidth: 0
GlyphClass: 2
Flags: HW
LayerCount: 2
Fore
SplineSet
991 134 m 257
 991 0 l 257
 184 0 l 257
 184 1290 l 257
 991 1290 l 257
 991 1155 l 257
 342 1155 l 257
 342 710 l 257
 938 710 l 257
 938 580 l 257
 342 580 l 257
 342 134 l 257
 991 134 l 257
EndSplineSet
EndChar

StartChar: F
Encoding: 70 70 18
GlifName: F_
Width: 1048
VWidth: 0
GlyphClass: 2
Flags: HW
LayerCount: 2
Fore
SplineSet
342 0 m 257
 184 0 l 257
 184 1290 l 257
 991 1290 l 257
 991 1155 l 257
 342 1155 l 257
 342 665 l 257
 921 665 l 257
 921 537 l 257
 342 537 l 257
 342 0 l 257
EndSplineSet
EndChar

StartChar: G
Encoding: 71 71 19
GlifName: G_
Width: 1357
VWidth: 0
GlyphClass: 2
Flags: HW
LayerCount: 2
Fore
SplineSet
684 667 m 257
 1250 668 l 257
 1250 484 l 258
 1250 170 1062 -21 707 -21 c 256
 309 -21 105 265 105 645 c 256
 105 1025 308 1312 700 1312 c 256
 940 1312 1102 1198 1190 1041 c 257
 1066 972 l 257
 994 1096 883 1176 700 1176 c 256
 407 1176 262 963 262 645 c 256
 262 327 407 114 709 114 c 256
 962 114 1092 233 1092 470 c 258
 1092 538 l 257
 685 538 l 257
 684 667 l 257
EndSplineSet
EndChar

StartChar: GAFbar
Encoding: 1114112 -1 20
GlifName: G_A_F_bar
Width: 1049
VWidth: 0
GlyphClass: 2
Flags: HW
LayerCount: 2
Fore
SplineSet
850 2012 m 257
 871 1916 l 257
 601 1860 325 1751 94 1604 c 257
 42 1687 l 257
 284 1842 570 1954 850 2012 c 257
EndSplineSet
EndChar

StartChar: H
Encoding: 72 72 21
GlifName: H_
Width: 1389
VWidth: 0
GlyphClass: 2
Flags: HW
LayerCount: 2
Fore
SplineSet
1049 1290 m 257
 1206 1290 l 257
 1206 0 l 257
 1049 0 l 257
 1049 586 l 257
 342 586 l 257
 342 0 l 257
 184 0 l 257
 184 1290 l 257
 342 1290 l 257
 342 716 l 257
 1049 716 l 257
 1049 1290 l 257
EndSplineSet
EndChar

StartChar: I
Encoding: 73 73 24
GlifName: I_
Width: 603
VWidth: 0
GlyphClass: 2
Flags: HW
LayerCount: 2
Fore
SplineSet
381 0 m 257
 224 0 l 257
 224 1290 l 257
 381 1290 l 257
 381 0 l 257
EndSplineSet
EndChar

StartChar: J
Encoding: 74 74 29
GlifName: J_
Width: 907
VWidth: 0
GlyphClass: 2
Flags: HW
LayerCount: 2
Fore
SplineSet
74 37 m 257
 133 155 l 257
 184 128 240 113 306 113 c 256
 473 113 567 200 567 387 c 258
 567 1290 l 257
 724 1290 l 257
 724 387 l 258
 724 117 548 -21 314 -21 c 256
 229 -21 146 -3 74 37 c 257
EndSplineSet
EndChar

StartChar: K
Encoding: 75 75 30
GlifName: K_
Width: 1191
VWidth: 0
GlyphClass: 2
Flags: HW
LayerCount: 2
Fore
SplineSet
960 1290 m 257
 1150 1290 l 257
 597 645 l 257
 1150 0 l 257
 960 0 l 257
 506 536 l 257
 342 341 l 257
 342 0 l 257
 184 0 l 257
 184 1290 l 257
 342 1290 l 257
 342 568 l 257
 960 1290 l 257
EndSplineSet
EndChar

StartChar: L
Encoding: 76 76 31
GlifName: L_
Width: 1008
VWidth: 0
GlyphClass: 2
Flags: HW
LayerCount: 2
Fore
SplineSet
959 134 m 257
 959 0 l 257
 184 0 l 257
 184 1290 l 257
 342 1290 l 257
 342 134 l 257
 959 134 l 257
EndSplineSet
EndChar

StartChar: M
Encoding: 77 77 32
GlifName: M_
Width: 1816
VWidth: 0
GlyphClass: 2
Flags: HW
LayerCount: 2
Fore
SplineSet
342 0 m 257
 184 0 l 257
 184 1290 l 257
 393 1290 l 257
 890 138 l 257
 1425 1290 l 257
 1633 1290 l 257
 1633 0 l 257
 1476 0 l 257
 1476 1073 l 257
 979 0 l 257
 799 0 l 257
 342 1068 l 257
 342 0 l 257
EndSplineSet
EndChar

StartChar: N
Encoding: 78 78 33
GlifName: N_
Width: 1429
VWidth: 0
GlyphClass: 2
Flags: HW
LayerCount: 2
Fore
SplineSet
1088 1290 m 257
 1246 1290 l 257
 1246 0 l 257
 1074 1 l 257
 342 1061 l 257
 342 0 l 257
 184 0 l 257
 184 1290 l 257
 356 1290 l 257
 1088 229 l 257
 1088 1290 l 257
EndSplineSet
EndChar

StartChar: O
Encoding: 79 79 35
GlifName: O_
Width: 1477
VWidth: 0
GlyphClass: 2
Flags: HW
LayerCount: 2
Fore
SplineSet
739 1312 m 256
 1135 1312 1338 1025 1338 645 c 256
 1338 265 1135 -21 739 -21 c 256
 343 -21 141 265 141 645 c 256
 141 1025 343 1312 739 1312 c 256
739 1176 m 256
 442 1176 298 963 298 645 c 256
 298 327 442 113 739 113 c 256
 1036 113 1180 327 1180 645 c 256
 1180 963 1036 1176 739 1176 c 256
EndSplineSet
EndChar

StartChar: OE
Encoding: 338 338 36
GlifName: O_E_
Width: 1720
VWidth: 0
GlyphClass: 2
Flags: HW
LayerCount: 2
Fore
SplineSet
848 1155 m 257
 746 1155 l 258
 431 1155 289 963 289 645 c 256
 289 327 431 134 746 134 c 258
 848 134 l 257
 848 1155 l 257
1005 1155 m 257
 1005 710 l 257
 1586 710 l 257
 1586 580 l 257
 1005 580 l 257
 1005 134 l 257
 1639 134 l 257
 1639 0 l 257
 746 0 l 258
 332 0 132 265 132 645 c 256
 132 1025 332 1290 746 1290 c 258
 1639 1290 l 257
 1639 1155 l 257
 1005 1155 l 257
EndSplineSet
EndChar

StartChar: P
Encoding: 80 80 43
GlifName: P_
Width: 1177
VWidth: 0
GlyphClass: 2
Flags: HW
LayerCount: 2
Fore
SplineSet
310 0 m 257
 153 0 l 257
 153 1290 l 257
 665 1290 l 258
 885 1290 1077 1154 1077 928 c 256
 1077 701 884 565 665 565 c 258
 310 565 l 257
 310 0 l 257
310 1155 m 257
 310 700 l 257
 665 700 l 258
 803 700 920 775 920 928 c 256
 920 1082 802 1155 665 1155 c 258
 310 1155 l 257
EndSplineSet
EndChar

StartChar: R
Encoding: 82 82 45
GlifName: R_
Width: 1177
VWidth: 0
GlyphClass: 2
Flags: HW
LayerCount: 2
Fore
SplineSet
801 660 m 257
 1152 0 l 257
 977 0 l 257
 646 660 l 257
 801 660 l 257
310 0 m 257
 153 0 l 257
 153 1290 l 257
 665 1290 l 258
 885 1290 1077 1154 1077 928 c 256
 1077 701 884 565 665 565 c 258
 310 565 l 257
 310 0 l 257
310 1155 m 257
 310 700 l 257
 665 700 l 258
 803 700 920 775 920 928 c 256
 920 1082 802 1155 665 1155 c 258
 310 1155 l 257
EndSplineSet
EndChar

StartChar: S
Encoding: 83 83 46
GlifName: S_
Width: 1136
VWidth: 0
GlyphClass: 2
Flags: HW
LayerCount: 2
Fore
SplineSet
100 386 m 257
 256 386 l 257
 256 206 400 114 581 114 c 256
 743 114 881 187 881 349 c 256
 881 489 728 536 554 585 c 256
 366 637 126 714 126 948 c 256
 126 1180 326 1312 556 1312 c 256
 809 1312 1010 1154 1010 906 c 257
 854 906 l 257
 854 1078 730 1177 556 1177 c 256
 399 1177 283 1101 283 946 c 256
 283 812 431 764 602 716 c 256
 794 664 1037 586 1037 344 c 256
 1037 95 809 -21 581 -21 c 256
 319 -21 100 124 100 386 c 257
EndSplineSet
EndChar

StartChar: T
Encoding: 84 84 47
GlifName: T_
Width: 1270
VWidth: 0
GlyphClass: 2
Flags: HW
LayerCount: 2
Fore
SplineSet
714 0 m 257
 557 0 l 257
 557 1155 l 257
 89 1155 l 257
 89 1290 l 257
 1181 1290 l 257
 1181 1155 l 257
 714 1155 l 257
 714 0 l 257
EndSplineSet
EndChar

StartChar: Thorn
Encoding: 222 222 54
GlifName: T_horn
Width: 1090
VWidth: 0
GlyphClass: 2
Flags: HW
LayerCount: 2
Fore
SplineSet
344 396 m 257
 520 396 l 258
 694 396 816 447 816 634 c 256
 816 821 694 872 520 872 c 258
 344 872 l 257
 344 396 l 257
344 0 m 257
 187 0 l 257
 187 1290 l 257
 344 1290 l 257
 344 1002 l 257
 520 1002 l 258
 758 1002 973 906 973 634 c 256
 973 362 758 267 520 267 c 258
 344 267 l 257
 344 0 l 257
EndSplineSet
EndChar

StartChar: U
Encoding: 85 85 55
GlifName: U_
Width: 1333
VWidth: 0
GlyphClass: 2
Flags: HW
LayerCount: 2
Fore
SplineSet
1026 1290 m 257
 1183 1290 l 257
 1183 466 l 258
 1183 174 959 -21 667 -21 c 256
 375 -21 151 174 151 466 c 258
 151 1290 l 257
 309 1290 l 257
 309 461 l 258
 309 247 456 113 667 113 c 256
 878 113 1026 247 1026 461 c 258
 1026 1290 l 257
EndSplineSet
EndChar

StartChar: V
Encoding: 86 86 60
GlifName: V_
Width: 1262
VWidth: 0
GlyphClass: 2
Flags: HW
LayerCount: 2
Fore
SplineSet
1071 1290 m 257
 1239 1290 l 257
 726 0 l 257
 535 0 l 257
 24 1290 l 257
 191 1290 l 257
 630 170 l 257
 1071 1290 l 257
EndSplineSet
EndChar

StartChar: W
Encoding: 87 87 61
GlifName: W_
Width: 1929
VWidth: 0
GlyphClass: 2
Flags: HW
LayerCount: 2
Fore
SplineSet
1711 1290 m 257
 1874 1290 l 257
 1469 0 l 257
 1279 0 l 257
 965 1091 l 257
 649 0 l 257
 459 0 l 257
 55 1290 l 257
 218 1290 l 257
 554 196 l 257
 870 1290 l 257
 1059 1290 l 257
 1375 196 l 257
 1711 1290 l 257
EndSplineSet
EndChar

StartChar: X
Encoding: 88 88 62
GlifName: X_
Width: 1272
VWidth: 0
GlyphClass: 2
Flags: HW
LayerCount: 2
Fore
SplineSet
1231 0 m 257
 1044 0 l 257
 636 528 l 257
 229 0 l 257
 42 0 l 257
 548 645 l 257
 42 1290 l 257
 229 1290 l 257
 636 763 l 257
 1044 1290 l 257
 1231 1290 l 257
 724 645 l 257
 1231 0 l 257
EndSplineSet
EndChar

StartChar: Y
Encoding: 89 89 63
GlifName: Y_
Width: 1189
VWidth: 0
GlyphClass: 2
Flags: HW
LayerCount: 2
Fore
SplineSet
985 1290 m 257
 1166 1290 l 257
 674 556 l 257
 674 0 l 257
 516 0 l 257
 516 556 l 257
 24 1290 l 257
 205 1290 l 257
 595 696 l 257
 985 1290 l 257
EndSplineSet
EndChar

StartChar: Z
Encoding: 90 90 65
GlifName: Z_
Width: 1216
VWidth: 0
GlyphClass: 2
Flags: HW
LayerCount: 2
Fore
SplineSet
87 1155 m 257
 87 1289 l 257
 1130 1289 l 257
 1130 1144 l 257
 256 134 l 257
 1130 134 l 257
 1130 0 l 257
 87 0 l 257
 87 145 l 257
 961 1155 l 257
 87 1155 l 257
EndSplineSet
EndChar

StartChar: a
Encoding: 97 97 66
GlifName: a
Width: 972
VWidth: 0
GlyphClass: 2
Flags: HW
LayerCount: 2
Fore
SplineSet
829 599 m 258
 829 0 l 257
 672 0 l 257
 672 596 l 258
 672 734 606 828 460 828 c 256
 344 828 270 761 204 660 c 257
 90 722 l 257
 175 862 285 954 473 954 c 256
 669 954 829 829 829 599 c 258
EndSplineSet
Refer: 312 57355 N 1 0 0 1 -38 0 2
EndChar

StartChar: acute
Encoding: 180 180 69
GlifName: acute
Width: 543
VWidth: 0
GlyphClass: 2
Flags: HW
LayerCount: 2
Fore
SplineSet
344 1331 m 257
 410 1289 l 257
 199 952 l 257
 134 994 l 257
 344 1331 l 257
EndSplineSet
EndChar

StartChar: ae
Encoding: 230 230 71
GlifName: ae
Width: 1596
VWidth: 0
GlyphClass: 2
Flags: HW
LayerCount: 2
Fore
SplineSet
829 444 m 257
 835 254 933 103 1118 103 c 256
 1244 103 1321 174 1367 263 c 257
 1496 207 l 257
 1436 81 1303 -21 1117 -21 c 256
 833 -21 672 201 672 466 c 256
 672 731 835 954 1116 954 c 256
 1379 954 1521 739 1521 482 c 258
 1521 444 l 257
 829 444 l 257
835 554 m 257
 1369 554 l 257
 1352 704 1278 829 1118 829 c 256
 956 829 859 712 835 554 c 257
829 596 m 258
 829 252 l 257
 672 252 l 257
 672 594 l 258
 672 732 606 828 460 828 c 256
 344 828 270 761 204 660 c 257
 90 722 l 257
 175 862 285 954 473 954 c 256
 669 954 829 826 829 596 c 258
EndSplineSet
Refer: 312 57355 N 1 0 0 1 -38 0 2
EndChar

StartChar: ampersand
Encoding: 38 38 73
GlifName: ampersand
Width: 1132
VWidth: 0
GlyphClass: 2
Flags: HW
LayerCount: 2
Fore
SplineSet
360 664 m 257
 269 771 l 258
 210 840 181 923 181 1002 c 256
 181 1176 313 1312 514 1312 c 256
 708 1312 855 1187 855 1019 c 256
 855 839 700 712 579 635 c 257
 844 324 l 257
 962 470 l 257
 1082 381 l 257
 942 208 l 257
 1077 52 l 257
 964 -42 l 257
 839 104 l 257
 748 28 630 -21 482 -21 c 256
 277 -21 105 101 105 303 c 256
 105 476 244 589 360 664 c 257
453 556 m 257
 362 496 261 421 261 303 c 256
 261 173 354 112 482 112 c 256
 606 112 679 151 745 212 c 257
 453 556 l 257
486 742 m 257
 575 799 699 893 699 1019 c 256
 699 1117 616 1178 514 1178 c 256
 405 1178 337 1110 337 1002 c 256
 337 950 357 895 395 849 c 258
 486 742 l 257
EndSplineSet
EndChar

StartChar: asciicircum
Encoding: 94 94 75
GlifName: asciicircum
Width: 739
VWidth: 0
GlyphClass: 2
Flags: HW
LayerCount: 2
Fore
SplineSet
646 973 m 257
 584 924 l 257
 370 1194 l 257
 156 924 l 257
 93 973 l 257
 329 1271 l 257
 410 1271 l 257
 646 973 l 257
EndSplineSet
EndChar

StartChar: asciitilde
Encoding: 126 126 76
GlifName: asciitilde
Width: 911
VWidth: 0
GlyphClass: 2
Flags: HW
LayerCount: 2
Fore
SplineSet
89 982 m 257
 138 1098 225 1154 302 1154 c 256
 368 1154 418 1132 480 1086 c 256
 535 1045 563 1032 610 1032 c 256
 646 1032 709 1066 749 1158 c 257
 822 1126 l 257
 775 1018 690 954 610 954 c 256
 544 954 492 976 432 1022 c 256
 376 1064 350 1075 302 1075 c 256
 264 1075 204 1047 162 951 c 257
 89 982 l 257
EndSplineSet
EndChar

StartChar: asterisk
Encoding: 42 42 77
GlifName: asterisk
Width: 1189
VWidth: 0
GlyphClass: 2
Flags: HW
LayerCount: 2
Fore
SplineSet
184 951 m 257
 221 1060 l 257
 540 953 l 257
 537 1290 l 257
 652 1290 l 257
 649 952 l 257
 969 1060 l 257
 1005 951 l 257
 683 848 l 257
 884 576 l 257
 792 509 l 257
 594 785 l 257
 398 509 l 257
 306 576 l 257
 506 848 l 257
 184 951 l 257
EndSplineSet
EndChar

StartChar: at
Encoding: 64 64 78
GlifName: at
Width: 2245
VWidth: 0
GlyphClass: 2
Flags: HW
LayerCount: 2
Fore
SplineSet
1092 945 m 256
 911 945 718 807 718 459 c 256
 718 197 860 108 1008 108 c 256
 1132 108 1289 201 1314 486 c 258
 1348 870 l 257
 1288 914 1224 945 1092 945 c 256
1092 1074 m 256
 1304 1074 1404 1002 1504 922 c 257
 1451 318 l 258
 1450 305 1449 295 1449 284 c 256
 1449 165 1511 101 1621 101 c 256
 1789 101 1892 286 1892 538 c 256
 1892 970 1546 1358 1100 1358 c 256
 670 1358 284 1013 284 538 c 256
 284 31 621 -286 1123 -286 c 256
 1207 -286 1289 -273 1365 -250 c 257
 1406 -352 l 257
 1318 -378 1223 -394 1123 -394 c 256
 537 -394 158 -15 158 538 c 256
 158 1060 582 1467 1092 1467 c 256
 1634 1467 2018 1017 2018 538 c 256
 2018 279 1891 -20 1605 -20 c 256
 1469 -20 1377 47 1335 141 c 257
 1251 33 1132 -20 1008 -20 c 256
 786 -20 567 124 567 459 c 256
 567 849 803 1074 1092 1074 c 256
EndSplineSet
EndChar

StartChar: b
Encoding: 98 98 80
GlifName: b
Width: 1143
VWidth: 0
GlyphClass: 2
Flags: HW
LayerCount: 2
Fore
SplineSet
308 0 m 257
 150 0 l 257
 150 1396 l 257
 308 1396 l 257
 308 0 l 257
EndSplineSet
Refer: 316 57359 N 1 0 0 1 -2 0 2
EndChar

StartChar: backslash
Encoding: 92 92 81
GlifName: backslash
Width: 1078
VWidth: 0
GlyphClass: 2
Flags: HW
LayerCount: 2
Fore
SplineSet
962 25 m 257
 822 -57 l 257
 117 1268 l 257
 258 1350 l 257
 962 25 l 257
EndSplineSet
EndChar

StartChar: bar
Encoding: 124 124 82
GlifName: bar
Width: 462
VWidth: 0
GlyphClass: 2
Flags: HW
LayerCount: 2
Fore
SplineSet
158 1290 m 257
 305 1290 l 257
 305 -431 l 257
 158 -431 l 257
 158 1290 l 257
EndSplineSet
EndChar

StartChar: braceleft
Encoding: 123 123 83
GlifName: braceleft
Width: 740
VWidth: 0
GlyphClass: 2
Flags: HW
LayerCount: 2
Fore
SplineSet
309 645 m 257
 394 598 456 499 456 393 c 258
 456 141 l 258
 456 83 485 62 540 62 c 258
 676 62 l 257
 676 -73 l 257
 522 -73 l 258
 395 -73 299 12 299 128 c 258
 299 393 l 258
 299 489 238 552 160 574 c 258
 105 590 l 257
 105 701 l 257
 160 716 l 258
 238 738 299 801 299 897 c 258
 299 1161 l 258
 299 1277 395 1361 522 1361 c 258
 676 1361 l 257
 676 1228 l 257
 540 1228 l 258
 485 1228 456 1206 456 1148 c 258
 456 897 l 258
 456 790 393 691 309 645 c 257
EndSplineSet
EndChar

StartChar: braceright
Encoding: 125 125 84
GlifName: braceright
Width: 740
VWidth: 0
GlyphClass: 2
Flags: HW
LayerCount: 2
Fore
SplineSet
472 645 m 257
 388 691 324 790 324 897 c 258
 324 1148 l 258
 324 1206 296 1229 241 1229 c 258
 105 1229 l 257
 105 1362 l 257
 259 1362 l 258
 386 1362 482 1278 482 1162 c 258
 482 897 l 258
 482 801 544 738 622 716 c 258
 676 701 l 257
 676 590 l 257
 622 574 l 258
 544 552 482 489 482 393 c 258
 482 128 l 258
 482 12 386 -73 259 -73 c 258
 105 -73 l 257
 105 62 l 257
 241 62 l 258
 296 62 324 83 324 141 c 258
 324 393 l 258
 324 499 387 598 472 645 c 257
EndSplineSet
EndChar

StartChar: bracketleft
Encoding: 91 91 85
GlifName: bracketleft
Width: 674
VWidth: 0
GlyphClass: 2
Flags: HW
LayerCount: 2
Fore
SplineSet
582 62 m 257
 582 -73 l 257
 153 -73 l 257
 153 1362 l 257
 582 1362 l 257
 582 1228 l 257
 310 1228 l 257
 310 62 l 257
 582 62 l 257
EndSplineSet
EndChar

StartChar: bracketright
Encoding: 93 93 86
GlifName: bracketright
Width: 674
VWidth: 0
GlyphClass: 2
Flags: HW
LayerCount: 2
Fore
SplineSet
92 1228 m 257
 92 1362 l 257
 522 1362 l 257
 522 -73 l 257
 92 -73 l 257
 92 62 l 257
 365 62 l 257
 365 1228 l 257
 92 1228 l 257
EndSplineSet
EndChar

StartChar: brokenbar
Encoding: 166 166 87
GlifName: brokenbar
Width: 462
VWidth: 0
GlyphClass: 2
Flags: HW
LayerCount: 2
Fore
SplineSet
310 801 m 257
 153 801 l 257
 153 1290 l 257
 310 1290 l 257
 310 801 l 257
310 0 m 257
 153 0 l 257
 153 453 l 257
 310 453 l 257
 310 0 l 257
EndSplineSet
EndChar

StartChar: c
Encoding: 99 99 88
GlifName: c
Width: 1013
VWidth: 0
GlyphClass: 2
Flags: HW
LayerCount: 2
Fore
SplineSet
540 103 m 256
 666 103 744 174 790 263 c 257
 920 207 l 257
 860 81 726 -21 540 -21 c 256
 256 -21 94 201 94 466 c 256
 94 731 256 954 540 954 c 256
 726 954 860 852 920 726 c 257
 790 669 l 257
 744 758 666 829 540 829 c 256
 354 829 252 675 252 466 c 256
 252 257 354 103 540 103 c 256
EndSplineSet
EndChar

StartChar: cedilla
Encoding: 184 184 90
GlifName: cedilla
Width: 759
VWidth: 0
GlyphClass: 2
Flags: HW
LayerCount: 2
Fore
SplineSet
219 -407 m 257
 395 -407 l 258
 491 -407 506 -367 506 -339 c 256
 506 -317 495 -284 466 -250 c 258
 362 -126 l 257
 433 -50 l 257
 538 -174 l 258
 580 -224 605 -281 605 -339 c 256
 605 -450 516 -517 395 -517 c 258
 219 -517 l 257
 219 -407 l 257
EndSplineSet
EndChar

StartChar: cent
Encoding: 162 162 91
GlifName: cent
Width: 1013
VWidth: 0
GlyphClass: 2
Flags: HW
LayerCount: 2
Fore
SplineSet
615 849 m 257
 468 849 l 257
 468 1290 l 257
 615 1290 l 257
 615 849 l 257
615 -431 m 257
 468 -431 l 257
 468 10 l 257
 615 10 l 257
 615 -431 l 257
EndSplineSet
Refer: 88 99 N 1 0 0 1 0 0 2
EndChar

StartChar: comma
Encoding: 44 44 93
GlifName: comma
Width: 555
VWidth: 0
GlyphClass: 2
Flags: HW
LayerCount: 2
Fore
SplineSet
150 146 m 256
 150 217 199 273 270 273 c 256
 354 273 406 216 406 94 c 256
 406 -68 328 -184 236 -264 c 257
 175 -202 l 257
 239 -142 300 -64 312 28 c 257
 233 4 150 60 150 146 c 256
EndSplineSet
EndChar

StartChar: copyright
Encoding: 169 169 94
GlifName: copyright
Width: 1771
VWidth: 0
GlyphClass: 2
Flags: HW
LayerCount: 2
Fore
SplineSet
1176 975 m 257
 1103 909 l 257
 1047 977 966 1012 887 1012 c 256
 735 1012 614 887 614 726 c 256
 614 566 735 440 887 440 c 256
 966 440 1047 475 1103 543 c 257
 1176 476 l 257
 1099 384 1008 338 884 338 c 256
 651 338 496 525 496 726 c 256
 496 926 651 1113 884 1113 c 256
 1008 1113 1099 1067 1176 975 c 257
266 724 m 256
 266 371 552 97 886 97 c 256
 1220 97 1506 371 1506 724 c 256
 1506 1077 1220 1350 886 1350 c 256
 552 1350 266 1077 266 724 c 256
121 724 m 256
 121 1135 456 1479 886 1479 c 256
 1316 1479 1652 1135 1652 724 c 256
 1652 313 1316 -31 886 -31 c 256
 456 -31 121 313 121 724 c 256
EndSplineSet
EndChar

StartChar: currency
Encoding: 164 164 95
GlifName: currency
Width: 1236
VWidth: 0
GlyphClass: 2
Flags: HW
LayerCount: 2
Fore
SplineSet
773 778 m 257
 666 778 l 257
 785 1050 l 257
 891 1050 l 257
 773 778 l 257
380 668 m 257
 377 574 l 257
 133 716 l 257
 137 810 l 257
 380 668 l 257
516 308 m 257
 519 308 l 257
 401 166 l 257
 397 166 l 257
 516 308 l 257
805 104 m 257
 912 198 l 257
 1156 -74 l 257
 1049 -169 l 257
 805 104 l 257
EndSplineSet
Refer: 142 111 N 1 0 0 1 94 0 2
EndChar

StartChar: d
Encoding: 100 100 96
GlifName: d
Width: 1143
VWidth: 0
GlyphClass: 2
Flags: HW
LayerCount: 2
Fore
SplineSet
994 0 m 257
 836 0 l 257
 836 1396 l 257
 994 1396 l 257
 994 0 l 257
EndSplineSet
Refer: 316 57359 N -1 0 0 -1 1146 932 2
EndChar

StartChar: degree
Encoding: 176 176 97
GlifName: degree
Width: 678
VWidth: 0
GlyphClass: 2
Flags: HW
LayerCount: 2
Fore
SplineSet
501 1250 m 256
 501 1342 431 1412 339 1412 c 256
 247 1412 177 1342 177 1250 c 256
 177 1158 247 1088 339 1088 c 256
 431 1088 501 1158 501 1250 c 256
580 1250 m 256
 580 1116 473 1009 339 1009 c 256
 205 1009 98 1116 98 1250 c 256
 98 1384 205 1490 339 1490 c 256
 473 1490 580 1384 580 1250 c 256
EndSplineSet
EndChar

StartChar: dotlessi
Encoding: 305 305 101
GlifName: dotlessi
Width: 446
VWidth: 0
GlyphClass: 2
Flags: HW
LayerCount: 2
Fore
SplineSet
145 932 m 257
 302 932 l 257
 302 0 l 257
 145 0 l 257
 145 932 l 257
EndSplineSet
EndChar

StartChar: e
Encoding: 101 101 102
GlifName: e
Width: 999
VWidth: 0
GlyphClass: 2
Flags: HW
LayerCount: 2
Fore
SplineSet
232 444 m 257
 238 254 336 103 521 103 c 256
 647 103 724 174 770 263 c 257
 900 207 l 257
 840 81 706 -21 520 -21 c 256
 236 -21 75 201 75 466 c 256
 75 731 239 954 520 954 c 256
 783 954 926 739 926 482 c 258
 926 444 l 257
 232 444 l 257
239 554 m 257
 773 554 l 257
 756 704 681 829 521 829 c 256
 359 829 263 712 239 554 c 257
EndSplineSet
EndChar

StartChar: eth
Encoding: 240 240 109
GlifName: eth
Width: 1053
VWidth: 0
GlyphClass: 2
Flags: HW
LayerCount: 2
Fore
SplineSet
527 829 m 256
 340 829 238 675 238 466 c 256
 238 257 339 104 527 104 c 256
 715 104 817 257 817 466 c 256
 817 675 714 829 527 829 c 256
527 954 m 256
 624 954 739 915 806 807 c 257
 750 963 619 1104 535 1176 c 257
 366 1038 l 257
 299 1118 l 257
 450 1241 l 257
 396 1278 344 1307 284 1328 c 257
 321 1434 l 257
 389 1412 464 1371 547 1313 c 257
 698 1441 l 257
 763 1360 l 257
 623 1250 l 257
 862 1028 974 764 974 492 c 256
 974 201 812 -21 527 -21 c 256
 242 -21 80 201 80 466 c 256
 80 731 242 954 527 954 c 256
EndSplineSet
EndChar

StartChar: exclam
Encoding: 33 33 110
GlifName: exclam
Width: 640
VWidth: 0
GlyphClass: 2
Flags: HW
LayerCount: 2
Fore
SplineSet
399 432 m 257
 242 432 l 257
 242 1290 l 257
 399 1290 l 257
 399 432 l 257
EndSplineSet
Refer: 160 46 N 1 0 0 1 32 0 2
EndChar

StartChar: f
Encoding: 102 102 112
GlifName: f
Width: 702
VWidth: 0
GlyphClass: 2
Flags: HW
LayerCount: 2
Fore
SplineSet
694 1396 m 257
 694 1272 l 257
 500 1272 l 258
 444 1272 391 1227 391 1158 c 258
 391 0 l 257
 234 0 l 257
 234 1142 l 258
 234 1276 343 1396 497 1396 c 257
 694 1396 l 257
EndSplineSet
Refer: 311 57354 N 1 0 0 1 -37 326 2
EndChar

StartChar: g
Encoding: 103 103 116
GlifName: g
Width: 1145
VWidth: 0
GlyphClass: 2
Flags: HW
LayerCount: 2
Fore
SplineSet
839 932 m 257
 996 932 l 257
 996 77 l 258
 996 -289 766 -444 488 -444 c 256
 350 -444 212 -410 100 -354 c 257
 152 -236 l 257
 250 -282 371 -313 480 -313 c 256
 674 -313 839 -215 839 60 c 258
 839 932 l 257
EndSplineSet
Refer: 316 57359 N -1 0 0 -1 1148 932 2
EndChar

StartChar: germandbls
Encoding: 223 223 117
GlifName: germandbls
Width: 1180
VWidth: 0
GlyphClass: 2
Flags: HW
LayerCount: 2
Fore
SplineSet
550 -3 m 257
 550 131 l 257
 841 131 922 149 922 258 c 256
 922 337 872 387 798 439 c 256
 724 491 624 566 624 702 c 256
 624 804 667 858 709 910 c 256
 749 958 786 1010 786 1095 c 256
 786 1243 707 1343 551 1343 c 256
 387 1343 317 1241 317 1087 c 258
 317 0 l 257
 166 0 l 257
 166 1087 l 258
 166 1285 285 1471 551 1471 c 256
 811 1471 938 1286 938 1087 c 256
 938 977 892 908 843 856 c 256
 806 815 774 774 774 704 c 256
 774 634 823 594 893 544 c 256
 973 486 1073 399 1073 255 c 256
 1073 19 854 -3 550 -3 c 257
EndSplineSet
EndChar

StartChar: grave
Encoding: 96 96 118
GlifName: grave
Width: 550
VWidth: 0
GlyphClass: 2
Flags: HW
LayerCount: 2
Fore
SplineSet
413 994 m 257
 348 952 l 257
 137 1288 l 257
 202 1331 l 257
 413 994 l 257
EndSplineSet
EndChar

StartChar: greater
Encoding: 62 62 119
GlifName: greater
Width: 821
VWidth: 0
GlyphClass: 2
Flags: HW
LayerCount: 2
Fore
SplineSet
207 173 m 257
 128 255 l 257
 532 636 l 257
 128 1020 l 257
 207 1102 l 257
 695 636 l 257
 207 173 l 257
EndSplineSet
EndChar

StartChar: h
Encoding: 104 104 122
GlifName: h
Width: 1144
VWidth: 0
GlyphClass: 2
Flags: HW
LayerCount: 2
Fore
SplineSet
305 0 m 257
 148 0 l 257
 148 1396 l 257
 305 1396 l 257
 305 0 l 257
EndSplineSet
Refer: 314 57357 N 1 0 0 1 16 0 2
EndChar

StartChar: hyphen
Encoding: 45 45 123
GlifName: hyphen
Width: 1031
VWidth: 0
GlyphClass: 2
Flags: HW
LayerCount: 2
Fore
SplineSet
920 621 m 257
 920 498 l 257
 113 498 l 257
 113 621 l 257
 920 621 l 257
EndSplineSet
EndChar

StartChar: k
Encoding: 107 107 130
GlifName: k
Width: 993
VWidth: 0
GlyphClass: 2
Flags: HW
LayerCount: 2
Fore
SplineSet
752 932 m 257
 952 932 l 257
 533 473 l 257
 952 0 l 257
 752 0 l 257
 438 369 l 257
 307 221 l 257
 307 0 l 257
 150 0 l 257
 150 1396 l 257
 307 1396 l 257
 307 426 l 257
 752 932 l 257
EndSplineSet
EndChar

StartChar: l
Encoding: 108 108 131
GlifName: l
Width: 462
VWidth: 0
GlyphClass: 2
Flags: HW
LayerCount: 2
Fore
SplineSet
310 0 m 257
 153 0 l 257
 153 1396 l 257
 310 1396 l 257
 310 0 l 257
EndSplineSet
EndChar

StartChar: less
Encoding: 60 60 132
GlifName: less
Width: 821
VWidth: 0
GlyphClass: 2
Flags: HW
LayerCount: 2
Fore
SplineSet
593 1102 m 257
 672 1020 l 257
 268 638 l 257
 672 255 l 257
 593 173 l 257
 104 638 l 257
 593 1102 l 257
EndSplineSet
EndChar

StartChar: logicalnot
Encoding: 172 172 133
GlifName: logicalnot
Width: 1115
VWidth: 0
GlyphClass: 2
Flags: HW
LayerCount: 2
Fore
SplineSet
97 473 m 257
 97 596 l 257
 943 596 l 257
 943 231 l 257
 806 231 l 257
 806 473 l 257
 97 473 l 257
EndSplineSet
EndChar

StartChar: m
Encoding: 109 109 134
GlifName: m
Width: 1634
VWidth: 0
GlyphClass: 2
Flags: HW
LayerCount: 2
Fore
SplineSet
134 932 m 257
 292 932 l 257
 292 0 l 257
 134 0 l 257
 134 932 l 257
EndSplineSet
Refer: 313 57356 N 1 0 0 1 -594 0 2
Refer: 313 57356 N 1 0 0 1 13 0 2
EndChar

StartChar: mu
Encoding: 181 181 136
GlifName: mu
Width: 1144
VWidth: 0
GlyphClass: 2
Flags: HW
LayerCount: 2
Fore
SplineSet
148 932 m 257
 305 932 l 257
 305 -431 l 257
 148 -431 l 257
 148 932 l 257
EndSplineSet
Refer: 189 117 N 1 0 0 1 0 0 2
EndChar

StartChar: multiply
Encoding: 215 215 137
GlifName: multiply
Width: 953
VWidth: 0
GlyphClass: 2
Flags: HW
LayerCount: 2
Fore
SplineSet
742 919 m 257
 828 832 l 257
 564 569 l 257
 828 305 l 257
 741 218 l 257
 477 482 l 257
 213 218 l 257
 126 304 l 257
 391 569 l 257
 126 833 l 257
 212 920 l 257
 477 656 l 257
 742 919 l 257
EndSplineSet
EndChar

StartChar: n
Encoding: 110 110 138
GlifName: n
Width: 1144
VWidth: 0
GlyphClass: 2
Flags: HW
LayerCount: 2
Fore
SplineSet
305 0 m 257
 148 0 l 257
 148 932 l 257
 305 932 l 257
 305 0 l 257
EndSplineSet
Refer: 314 57357 N 1 0 0 1 16 0 2
EndChar

StartChar: numbersign
Encoding: 35 35 141
GlifName: numbersign
Width: 1652
VWidth: 0
GlyphClass: 2
Flags: HW
LayerCount: 2
Fore
SplineSet
1036 861 m 257
 698 861 l 257
 597 498 l 257
 936 498 l 257
 1036 861 l 257
460 0 m 257
 302 0 l 257
 407 378 l 257
 158 378 l 257
 158 498 l 257
 440 498 l 257
 540 861 l 257
 263 861 l 257
 263 981 l 257
 573 981 l 257
 672 1339 l 257
 830 1339 l 257
 731 981 l 257
 1069 981 l 257
 1168 1339 l 257
 1325 1339 l 257
 1226 981 l 257
 1495 981 l 257
 1495 861 l 257
 1192 861 l 257
 1093 498 l 257
 1389 498 l 257
 1389 378 l 257
 1060 378 l 257
 956 0 l 257
 798 0 l 257
 902 378 l 257
 564 378 l 257
 460 0 l 257
EndSplineSet
EndChar

StartChar: o
Encoding: 111 111 142
GlifName: o
Width: 1053
VWidth: 0
GlyphClass: 2
Flags: HW
LayerCount: 2
Fore
SplineSet
527 829 m 256
 340 829 238 675 238 466 c 256
 238 257 339 104 527 104 c 256
 715 104 817 257 817 466 c 256
 817 675 714 829 527 829 c 256
527 954 m 256
 812 954 974 731 974 466 c 256
 974 201 812 -21 527 -21 c 256
 242 -21 80 201 80 466 c 256
 80 731 242 954 527 954 c 256
EndSplineSet
EndChar

StartChar: onehalf
Encoding: 189 189 149
GlifName: onehalf
Width: 2229
VWidth: 0
GlyphClass: 2
Flags: HW
LayerCount: 2
Fore
SplineSet
643 -97 m 257
 519 -25 l 257
 1520 1472 l 257
 1645 1401 l 257
 643 -97 l 257
2109 -330 m 257
 2109 -463 l 257
 1336 -463 l 257
 1336 -333 l 257
 1856 165 l 258
 1918 225 1957 276 1957 384 c 256
 1957 543 1844 618 1724 618 c 256
 1601 618 1492 540 1492 366 c 257
 1336 366 l 257
 1336 611 1518 753 1722 753 c 256
 1917 753 2109 621 2109 379 c 256
 2109 231 2046 140 1971 70 c 257
 1555 -330 l 257
 2109 -330 l 257
145 1242 m 257
 145 1372 l 257
 212 1372 l 258
 342 1372 387 1390 416 1450 c 257
 416 1623 l 257
 573 1623 l 257
 573 484 l 257
 416 484 l 257
 416 1288 l 257
 358 1253 282 1242 191 1242 c 258
 145 1242 l 257
EndSplineSet
EndChar

StartChar: onequarter
Encoding: 188 188 150
GlifName: onequarter
Width: 2076
VWidth: 0
GlyphClass: 2
Flags: HW
LayerCount: 2
Fore
SplineSet
1943 -64 m 257
 1943 -190 l 257
 1793 -190 l 257
 1793 -449 l 257
 1635 -449 l 257
 1635 -190 l 257
 1095 -190 l 257
 1095 -60 l 257
 1627 736 l 257
 1793 736 l 257
 1793 -64 l 257
 1943 -64 l 257
1635 -64 m 257
 1635 522 l 257
 1245 -64 l 257
 1635 -64 l 257
646 -97 m 257
 521 -25 l 257
 1522 1472 l 257
 1646 1401 l 257
 646 -97 l 257
145 1242 m 257
 145 1371 l 257
 212 1371 l 258
 343 1371 387 1389 416 1449 c 257
 416 1623 l 257
 573 1623 l 257
 573 484 l 257
 416 484 l 257
 416 1288 l 257
 358 1254 282 1242 191 1242 c 258
 145 1242 l 257
EndSplineSet
EndChar

StartChar: ordfeminine
Encoding: 170 170 151
GlifName: ordfeminine
Width: 784
VWidth: 0
GlyphClass: 2
Flags: HW
LayerCount: 2
Fore
SplineSet
656 1310 m 258
 656 892 l 257
 545 892 l 257
 545 1001 l 257
 500 925 426 877 327 877 c 256
 217 877 130 933 130 1044 c 256
 130 1200 295 1278 461 1278 c 256
 489 1278 518 1276 545 1272 c 257
 545 1312 l 258
 545 1407 498 1470 397 1470 c 256
 316 1470 264 1423 218 1352 c 257
 138 1396 l 257
 198 1494 274 1558 406 1558 c 256
 543 1558 656 1470 656 1310 c 258
545 1117 m 257
 545 1200 l 257
 520 1204 492 1208 467 1208 c 256
 349 1208 236 1148 236 1055 c 256
 236 992 279 966 351 966 c 256
 445 966 517 1027 545 1117 c 257
EndSplineSet
EndChar

StartChar: p
Encoding: 112 112 155
GlifName: p
Width: 1143
VWidth: 0
GlyphClass: 2
Flags: HW
LayerCount: 2
Fore
SplineSet
150 925 m 257
 308 925 l 257
 308 -431 l 257
 150 -431 l 257
 150 925 l 257
EndSplineSet
Refer: 316 57359 N 1 0 0 1 -2 0 2
EndChar

StartChar: paragraph
Encoding: 182 182 156
GlifName: paragraph
Width: 1332
VWidth: 0
GlyphClass: 2
Flags: HW
LayerCount: 2
Fore
SplineSet
744 1156 m 257
 568 1156 l 258
 412 1156 262 1026 262 806 c 256
 262 586 412 456 568 456 c 258
 744 456 l 257
 744 1156 l 257
1172 -431 m 257
 1036 -431 l 257
 1036 1156 l 257
 880 1156 l 257
 880 -431 l 257
 744 -431 l 257
 744 322 l 257
 568 322 l 258
 304 322 105 537 105 806 c 256
 105 1075 303 1290 568 1290 c 258
 1172 1290 l 257
 1172 -431 l 257
EndSplineSet
EndChar

StartChar: parenleft
Encoding: 40 40 157
GlifName: parenleft
Width: 533
VWidth: 0
GlyphClass: 2
Flags: HW
LayerCount: 2
Fore
SplineSet
442 -70 m 257
 327 -145 l 257
 188 69 92 350 92 712 c 256
 92 1074 188 1355 327 1569 c 257
 442 1494 l 257
 314 1294 238 1037 238 712 c 256
 238 387 314 130 442 -70 c 257
EndSplineSet
EndChar

StartChar: parenright
Encoding: 41 41 158
GlifName: parenright
Width: 533
VWidth: 0
GlyphClass: 2
Flags: HW
LayerCount: 2
Fore
SplineSet
92 1494 m 257
 207 1569 l 257
 346 1355 442 1074 442 712 c 256
 442 350 346 69 207 -145 c 257
 92 -70 l 257
 220 130 296 387 296 712 c 256
 296 1037 220 1294 92 1494 c 257
EndSplineSet
EndChar

StartChar: period
Encoding: 46 46 160
GlifName: period
Width: 577
VWidth: 0
GlyphClass: 2
Flags: HW
LayerCount: 2
Fore
SplineSet
182 107 m 256
 182 166 231 212 290 212 c 256
 349 212 396 166 396 107 c 256
 396 48 349 0 290 0 c 256
 231 0 182 48 182 107 c 256
EndSplineSet
EndChar

StartChar: plus
Encoding: 43 43 162
GlifName: plus
Width: 1031
VWidth: 0
GlyphClass: 2
Flags: HW
LayerCount: 2
Fore
SplineSet
920 607 m 257
 920 484 l 257
 586 484 l 257
 586 143 l 257
 444 143 l 257
 444 484 l 257
 113 484 l 257
 113 607 l 257
 444 607 l 257
 444 949 l 257
 586 949 l 257
 586 607 l 257
 920 607 l 257
EndSplineSet
EndChar

StartChar: q
Encoding: 113 113 164
GlifName: q
Width: 1143
VWidth: 0
GlyphClass: 2
Flags: HW
LayerCount: 2
Fore
SplineSet
836 932 m 257
 994 932 l 257
 994 -431 l 257
 836 -431 l 257
 836 932 l 257
EndSplineSet
Refer: 316 57359 N -1 0 0 -1 1146 933 2
EndChar

StartChar: question
Encoding: 63 63 165
GlifName: question
Width: 1061
VWidth: 0
GlyphClass: 2
Flags: HW
LayerCount: 2
Fore
SplineSet
521 0 m 256
 462 0 413 48 413 107 c 256
 413 166 462 212 521 212 c 256
 580 212 628 166 628 107 c 256
 628 48 580 0 521 0 c 256
298 865 m 257
 150 847 l 257
 145 881 142 919 142 950 c 256
 142 1126 261 1312 525 1312 c 256
 784 1312 920 1129 920 940 c 256
 920 798 832 702 742 630 c 256
 655 560 586 501 586 381 c 257
 435 381 l 257
 435 532 530 617 624 695 c 256
 709 766 768 840 768 954 c 256
 768 1084 678 1182 525 1182 c 256
 359 1182 290 1076 290 950 c 256
 290 921 293 893 298 865 c 257
EndSplineSet
EndChar

StartChar: quoteleft
Encoding: 8216 8216 170
GlifName: quoteleft
Width: 551
VWidth: 0
GlyphClass: 2
Flags: HW
LayerCount: 2
Fore
SplineSet
405 1354 m 256
 405 1266 326 1213 238 1237 c 257
 247 1145 305 1064 367 1002 c 257
 304 942 l 257
 218 1023 146 1139 146 1297 c 256
 146 1418 196 1481 282 1481 c 256
 356 1481 405 1425 405 1354 c 256
EndSplineSet
EndChar

StartChar: quoteright
Encoding: 8217 8217 171
GlifName: quoteright
Width: 551
VWidth: 0
GlyphClass: 2
Flags: HW
LayerCount: 2
Fore
SplineSet
146 1354 m 256
 146 1425 195 1481 269 1481 c 256
 355 1481 405 1418 405 1297 c 256
 405 1139 334 1023 248 942 c 257
 184 1002 l 257
 246 1064 305 1145 314 1237 c 257
 226 1213 146 1266 146 1354 c 256
EndSplineSet
EndChar

StartChar: quotesingle
Encoding: 39 39 172
GlifName: quotesingle
Width: 420
VWidth: 0
GlyphClass: 2
Flags: HW
LayerCount: 2
Fore
SplineSet
155 1290 m 257
 265 1290 l 257
 265 768 l 257
 155 768 l 257
 155 1290 l 257
EndSplineSet
EndChar

StartChar: r
Encoding: 114 114 173
GlifName: r
Width: 744
VWidth: 0
GlyphClass: 2
Flags: HW
LayerCount: 2
Fore
SplineSet
150 932 m 257
 308 932 l 257
 308 0 l 257
 150 0 l 257
 150 932 l 257
EndSplineSet
Refer: 315 57358 N 1 0 0 1 18 -155 2
EndChar

StartChar: registered
Encoding: 174 174 174
GlifName: registered
Width: 1771
VWidth: 0
GlyphClass: 2
Flags: HW
LayerCount: 2
Fore
SplineSet
121 724 m 256
 121 1135 456 1479 886 1479 c 256
 1316 1479 1652 1135 1652 724 c 256
 1652 313 1316 -31 886 -31 c 256
 456 -31 121 313 121 724 c 256
266 724 m 256
 266 371 552 97 886 97 c 256
 1220 97 1506 371 1506 724 c 256
 1506 1077 1220 1350 886 1350 c 256
 552 1350 266 1077 266 724 c 256
734 682 m 257
 914 682 l 258
 1019 682 1102 745 1102 847 c 256
 1102 949 1020 1014 914 1014 c 258
 734 1014 l 257
 734 682 l 257
1206 364 m 257
 1091 326 l 257
 883 580 l 257
 734 580 l 257
 734 344 l 257
 619 344 l 257
 619 1117 l 257
 914 1117 l 258
 1083 1117 1222 1004 1222 847 c 256
 1222 723 1134 630 1016 596 c 257
 1206 364 l 257
EndSplineSet
EndChar

StartChar: s
Encoding: 115 115 175
GlifName: s
Width: 892
VWidth: 0
GlyphClass: 2
Flags: HW
LayerCount: 2
Fore
SplineSet
796 812 m 257
 685 724 l 257
 627 781 560 829 458 829 c 256
 354 829 268 770 268 684 c 256
 268 586 372 552 482 527 c 256
 628 494 798 429 798 247 c 256
 798 55 620 -22 437 -22 c 256
 290 -22 168 22 87 88 c 257
 186 187 l 257
 243 141 335 100 443 100 c 256
 555 100 646 136 646 241 c 256
 646 343 528 385 413 413 c 256
 269 449 118 504 118 678 c 256
 118 842 280 954 462 954 c 256
 606 954 718 895 796 812 c 257
EndSplineSet
EndChar

StartChar: section
Encoding: 167 167 176
GlifName: section
Width: 916
VWidth: 0
GlyphClass: 2
Flags: HW
LayerCount: 2
Fore
SplineSet
823 662 m 256
 823 551 760 483 682 444 c 257
 749 405 806 346 806 244 c 256
 806 52 628 -26 445 -26 c 256
 298 -26 175 18 94 84 c 257
 194 184 l 257
 251 138 343 97 451 97 c 256
 563 97 654 133 654 238 c 256
 654 351 548 378 416 408 c 256
 273 440 126 484 126 654 c 256
 126 751 185 829 269 875 c 257
 199 912 142 970 142 1072 c 256
 142 1236 305 1348 487 1348 c 256
 631 1348 742 1288 820 1205 c 257
 710 1118 l 257
 652 1175 584 1223 482 1223 c 256
 378 1223 292 1164 292 1078 c 256
 292 974 396 948 520 920 c 256
 666 886 823 842 823 662 c 256
671 651 m 256
 671 751 572 809 464 809 c 256
 365 809 276 747 276 652 c 256
 276 560 382 518 482 518 c 256
 580 518 671 555 671 651 c 256
EndSplineSet
EndChar

StartChar: simpledot
Encoding: 1114122 -1 179
GlifName: simpledot
Width: 2399
VWidth: 0
GlyphClass: 2
Flags: HW
LayerCount: 2
Fore
SplineSet
1118 138 m 257
 1247 267 l 257
 1375 138 l 257
 1247 9 l 257
 1118 138 l 257
EndSplineSet
EndChar

StartChar: slash
Encoding: 47 47 181
GlifName: slash
Width: 1102
VWidth: 0
GlyphClass: 2
Flags: HW
LayerCount: 2
Fore
SplineSet
825 1329 m 257
 966 1258 l 257
 279 -41 l 257
 138 33 l 257
 825 1329 l 257
EndSplineSet
EndChar

StartChar: sterling
Encoding: 163 163 183
GlifName: sterling
Width: 1203
VWidth: 0
GlyphClass: 2
Flags: HW
LayerCount: 2
Fore
SplineSet
632 1172 m 256
 546 1172 461 1100 461 992 c 258
 461 292 l 258
 461 233 447 177 413 134 c 257
 1083 134 l 257
 1083 0 l 257
 121 0 l 257
 121 134 l 257
 240 134 304 176 304 292 c 258
 304 987 l 258
 304 1156 441 1306 632 1306 c 256
 808 1306 931 1184 957 1031 c 257
 802 1010 l 257
 787 1104 718 1172 632 1172 c 256
EndSplineSet
Refer: 311 57354 N 1 0 0 1 24 -7 2
EndChar

StartChar: t
Encoding: 116 116 184
GlifName: t
Width: 720
VWidth: 0
GlyphClass: 2
Flags: HW
LayerCount: 2
Fore
SplineSet
666 124 m 257
 666 0 l 257
 488 0 l 257
 334 0 224 120 224 254 c 258
 224 1232 l 257
 382 1232 l 257
 382 238 l 258
 382 169 434 124 490 124 c 258
 666 124 l 257
EndSplineSet
Refer: 311 57354 N 1 0 0 1 -69 347 2
EndChar

StartChar: threequarters
Encoding: 190 190 187
GlifName: threequarters
Width: 2289
VWidth: 0
GlyphClass: 2
Flags: HW
LayerCount: 2
Fore
SplineSet
2006 -64 m 257
 2156 -64 l 257
 2156 -190 l 257
 2006 -190 l 257
 2006 -449 l 257
 1848 -449 l 257
 1848 -190 l 257
 1308 -190 l 257
 1308 -60 l 257
 1841 736 l 257
 2006 736 l 257
 2006 -64 l 257
1848 -64 m 257
 1848 522 l 257
 1457 -64 l 257
 1848 -64 l 257
105 800 m 257
 258 800 l 257
 258 630 366 559 494 559 c 256
 624 559 730 642 730 760 c 256
 730 919 633 976 479 976 c 258
 380 976 l 257
 380 1103 l 257
 479 1103 l 258
 626 1103 722 1160 722 1310 c 256
 722 1423 622 1510 497 1510 c 256
 374 1510 270 1440 270 1274 c 257
 117 1274 l 257
 117 1512 294 1643 497 1643 c 256
 694 1643 873 1504 873 1310 c 256
 873 1188 813 1091 719 1041 c 257
 817 991 881 890 881 760 c 256
 881 566 706 427 494 427 c 256
 286 427 105 557 105 800 c 257
858 -97 m 257
 734 -25 l 257
 1736 1472 l 257
 1860 1401 l 257
 858 -97 l 257
EndSplineSet
EndChar

StartChar: u
Encoding: 117 117 189
GlifName: u
Width: 1144
VWidth: 0
GlyphClass: 2
Flags: HW
LayerCount: 2
Fore
SplineSet
841 932 m 257
 998 932 l 257
 998 0 l 257
 841 0 l 257
 841 932 l 257
EndSplineSet
Refer: 314 57357 N -1 0 0 -1 1130 932 2
EndChar

StartChar: underscore
Encoding: 95 95 194
GlifName: underscore
Width: 699
VWidth: 0
GlyphClass: 2
Flags: HW
LayerCount: 2
Fore
SplineSet
712 157 m 257
 712 -1 l 257
 -13 -1 l 257
 -13 157 l 257
 712 157 l 257
EndSplineSet
EndChar

StartChar: uni00AD
Encoding: 173 173 196
GlifName: uni00A_D_
Width: 1031
VWidth: 0
GlyphClass: 2
Flags: HW
LayerCount: 2
Fore
SplineSet
920 621 m 257
 920 498 l 257
 113 498 l 257
 113 621 l 257
 920 621 l 257
EndSplineSet
EndChar

StartChar: uni00B2
Encoding: 178 178 197
GlifName: uni00B_2
Width: 691
VWidth: 0
GlyphClass: 2
Flags: HW
LayerCount: 2
Fore
SplineSet
124 920 m 257
 124 997 l 257
 412 1257 l 258
 442 1287 458 1306 458 1360 c 256
 458 1442 398 1480 330 1480 c 256
 260 1480 202 1441 202 1357 c 257
 124 1357 l 257
 124 1493 229 1558 330 1558 c 256
 430 1558 536 1494 536 1360 c 256
 536 1283 502 1236 466 1202 c 258
 238 998 l 257
 544 998 l 257
 544 920 l 257
 124 920 l 257
EndSplineSet
EndChar

StartChar: uni00B3
Encoding: 179 179 198
GlifName: uni00B_3
Width: 636
VWidth: 0
GlyphClass: 2
Flags: HW
LayerCount: 2
Fore
SplineSet
197 1376 m 257
 118 1376 l 257
 118 1483 211 1558 318 1558 c 256
 424 1558 518 1483 518 1378 c 256
 518 1319 488 1268 437 1238 c 257
 487 1210 518 1156 518 1097 c 256
 518 992 424 916 318 916 c 256
 211 916 118 993 118 1100 c 257
 197 1100 l 257
 197 1045 245 995 318 995 c 256
 390 995 439 1044 439 1097 c 256
 439 1150 390 1200 318 1200 c 258
 252 1200 l 257
 252 1276 l 257
 318 1276 l 258
 390 1276 439 1325 439 1378 c 256
 439 1431 390 1480 318 1480 c 256
 245 1480 197 1431 197 1376 c 257
EndSplineSet
EndChar

StartChar: uni00B9
Encoding: 185 185 199
GlifName: uni00B_9
Width: 478
VWidth: 0
GlyphClass: 2
Flags: HW
LayerCount: 2
Fore
SplineSet
91 1341 m 257
 91 1420 l 257
 255 1420 l 257
 255 1532 l 257
 334 1532 l 257
 334 872 l 257
 255 872 l 257
 255 1341 l 257
 91 1341 l 257
EndSplineSet
EndChar

StartChar: uni0237
Encoding: 567 567 200
GlifName: uni0237
Width: 446
VWidth: 0
GlyphClass: 2
Flags: HW
LayerCount: 2
Fore
SplineSet
145 -153 m 258
 145 932 l 257
 302 932 l 257
 302 -153 l 258
 302 -286 192 -407 38 -407 c 258
 -79 -407 l 257
 -79 -268 l 257
 35 -268 l 258
 91 -268 145 -221 145 -153 c 258
EndSplineSet
EndChar

StartChar: uni060C
Encoding: 1548 1548 201
GlifName: uni060C_
Width: 578
VWidth: 0
GlyphClass: 2
Flags: HW
LayerCount: 2
Fore
SplineSet
418 126 m 256
 418 55 370 0 296 0 c 256
 210 0 160 61 160 186 c 256
 160 340 234 463 320 544 c 257
 383 484 l 257
 321 422 261 336 252 244 c 257
 338 268 418 214 418 126 c 256
EndSplineSet
EndChar

StartChar: uni0615
Encoding: 1557 1557 202
GlifName: uni0615
Width: 0
VWidth: 0
GlyphClass: 4
Flags: H
AnchorPoint: "Anchor-1" 0 1296 mark 0
AnchorPoint: "Anchor-4" 0 1296 mark 0
AnchorPoint: "Anchor-5" 0 1296 mark 0
AnchorPoint: "Anchor-1" 0 1652 basechar 0
LayerCount: 2
Fore
SplineSet
284 1800 m 256
 284 1622 67 1613 -157 1611 c 258
 -284 1611 l 257
 -284 1690 l 257
 -164 1690 l 257
 -164 2140 l 257
 -85 2140 l 257
 -85 1823 l 257
 -19 1905 58 1949 132 1949 c 256
 216 1949 284 1891 284 1800 c 256
-78 1692 m 257
 133 1698 206 1728 206 1800 c 256
 206 1846 179 1870 132 1870 c 256
 76 1870 -9 1821 -78 1692 c 257
EndSplineSet
EndChar

StartChar: uni061F
Encoding: 1567 1567 204
GlifName: uni061F_
Width: 1072
VWidth: 0
GlyphClass: 2
Flags: HW
LayerCount: 2
Fore
SplineSet
546 212 m 256
 605 212 654 166 654 107 c 256
 654 48 605 0 546 0 c 256
 487 0 440 48 440 107 c 256
 440 166 487 212 546 212 c 256
633 381 m 257
 482 381 l 257
 482 501 412 560 325 630 c 256
 235 702 148 798 148 940 c 256
 148 1129 283 1312 542 1312 c 256
 806 1312 926 1126 926 950 c 256
 926 919 922 881 917 847 c 257
 770 865 l 257
 775 893 777 921 777 950 c 256
 777 1076 708 1182 542 1182 c 256
 389 1182 299 1084 299 954 c 256
 299 840 359 766 444 695 c 256
 538 617 633 532 633 381 c 257
EndSplineSet
EndChar

StartChar: uni0660
Encoding: 1632 1632 256
GlifName: uni0660
Width: 898
VWidth: 0
GlyphClass: 2
Flags: HW
LayerCount: 2
Fore
SplineSet
448 644 m 256
 351 644 277 569 277 472 c 256
 277 375 352 300 448 300 c 256
 544 300 621 375 621 472 c 256
 621 568 545 644 448 644 c 256
448 785 m 256
 621 785 762 646 762 472 c 256
 762 299 622 159 448 159 c 256
 274 159 137 299 137 472 c 256
 137 645 275 785 448 785 c 256
EndSplineSet
PairPos2: "'kern' Horizontal Kerning in Arabic lookup 7 per glyph data 0" uni0662 dx=-131 dy=0 dh=-131 dv=0 dx=0 dy=0 dh=0 dv=0
PairPos2: "'kern' Horizontal Kerning in Arabic lookup 7 per glyph data 0" uni0666 dx=-26 dy=0 dh=-26 dv=0 dx=0 dy=0 dh=0 dv=0
PairPos2: "'kern' Horizontal Kerning in Arabic lookup 7 per glyph data 0" uni0667 dx=-105 dy=0 dh=-105 dv=0 dx=0 dy=0 dh=0 dv=0
PairPos2: "'kern' Horizontal Kerning in Arabic lookup 7 per glyph data 0" uni0661 dx=53 dy=0 dh=53 dv=0 dx=0 dy=0 dh=0 dv=0
EndChar

StartChar: uni0661
Encoding: 1633 1633 257
GlifName: uni0661
Width: 661
VWidth: 0
GlyphClass: 2
Flags: HW
LayerCount: 2
Fore
SplineSet
519 0 m 257
 360 0 l 257
 360 497 287 814 131 1260 c 257
 278 1312 l 257
 438 854 519 514 519 0 c 257
EndSplineSet
PairPos2: "'kern' Horizontal Kerning in Arabic lookup 7 per glyph data 0" uni0660 dx=-53 dy=0 dh=-53 dv=0 dx=0 dy=0 dh=0 dv=0
PairPos2: "'kern' Horizontal Kerning in Arabic lookup 7 per glyph data 0" uni0665 dx=-53 dy=0 dh=-53 dv=0 dx=0 dy=0 dh=0 dv=0
EndChar

StartChar: uni0662
Encoding: 1634 1634 258
GlifName: uni0662
Width: 1103
VWidth: 0
GlyphClass: 2
Flags: HW
LayerCount: 2
Fore
SplineSet
594 835 m 256
 788 835 810 1011 810 1303 c 257
 968 1303 l 257
 968 1044 960 678 601 678 c 256
 547 678 496 691 448 724 c 257
 494 488 519 270 519 0 c 257
 360 0 l 257
 360 506 258 862 130 1265 c 257
 280 1312 l 257
 382 970 424 835 594 835 c 256
EndSplineSet
EndChar

StartChar: uni0663
Encoding: 1635 1635 259
GlifName: uni0663
Width: 1455
VWidth: 0
GlyphClass: 2
Flags: HW
LayerCount: 2
Fore
SplineSet
871 1280 m 257
 864 1197 859 1124 859 1054 c 256
 859 914 890 842 1004 842 c 256
 1132 842 1160 968 1160 1114 c 256
 1160 1168 1154 1230 1144 1282 c 257
 1299 1312 l 257
 1311 1252 1318 1186 1318 1115 c 256
 1318 895 1230 685 997 685 c 256
 881 685 806 748 770 836 c 257
 731 748 672 685 558 685 c 256
 514 685 478 698 445 722 c 257
 490 489 516 267 516 0 c 257
 358 0 l 257
 358 506 259 881 130 1263 c 257
 279 1312 l 257
 381 961 423 842 549 842 c 256
 698 842 716 1011 732 1290 c 257
 871 1280 l 257
EndSplineSet
PairPos2: "'kern' Horizontal Kerning in Arabic lookup 7 per glyph data 0" uni0668 dx=-53 dy=0 dh=-53 dv=0 dx=0 dy=0 dh=0 dv=0
EndChar

StartChar: uni0664
Encoding: 1636 1636 260
GlifName: uni0664
Width: 1047
VWidth: 0
GlyphClass: 2
Flags: HW
LayerCount: 2
Fore
SplineSet
411 666 m 257
 287 706 199 772 199 910 c 256
 199 1136 448 1279 724 1312 c 257
 746 1160 l 257
 480 1126 358 1010 358 911 c 256
 358 785 485 748 745 748 c 257
 745 603 l 257
 481 603 294 468 294 311 c 256
 294 178 442 155 596 155 c 258
 877 155 l 257
 877 0 l 257
 558 0 l 258
 371 0 136 62 136 299 c 256
 136 448 237 593 411 666 c 257
EndSplineSet
PairPos2: "'kern' Horizontal Kerning in Arabic lookup 7 per glyph data 0" uni0666 dx=53 dy=0 dh=53 dv=0 dx=0 dy=0 dh=0 dv=0
EndChar

StartChar: uni0665
Encoding: 1637 1637 261
GlifName: uni0665
Width: 1225
VWidth: 0
GlyphClass: 2
Flags: HW
LayerCount: 2
Fore
SplineSet
509 1312 m 257
 776 1094 1092 765 1092 387 c 256
 1092 92 902 -21 620 -21 c 256
 348 -21 134 90 134 384 c 256
 134 639 269 869 517 1095 c 257
 483 1127 445 1162 409 1191 c 257
 509 1312 l 257
622 991 m 257
 388 775 291 582 291 388 c 256
 291 206 402 136 620 136 c 256
 843 136 935 201 935 391 c 256
 935 587 810 797 622 991 c 257
EndSplineSet
PairPos2: "'kern' Horizontal Kerning in Arabic lookup 7 per glyph data 0" uni0667 dx=-105 dy=0 dh=-105 dv=0 dx=0 dy=0 dh=0 dv=0
PairPos2: "'kern' Horizontal Kerning in Arabic lookup 7 per glyph data 0" uni0661 dx=53 dy=0 dh=53 dv=0 dx=0 dy=0 dh=0 dv=0
EndChar

StartChar: uni0666
Encoding: 1638 1638 262
GlifName: uni0666
Width: 1179
VWidth: 0
GlyphClass: 2
Flags: HW
LayerCount: 2
Fore
SplineSet
128 1154 m 257
 153 1309 l 257
 309 1291 444 1286 576 1286 c 256
 686 1286 775 1293 846 1305 c 257
 928 1233 l 257
 924 1133 921 1038 921 945 c 256
 921 555 954 352 1044 28 c 257
 891 -10 l 257
 800 320 764 546 764 945 c 256
 764 1008 764 1069 766 1137 c 257
 712 1132 655 1129 571 1129 c 256
 435 1129 288 1134 128 1154 c 257
EndSplineSet
PairPos2: "'kern' Horizontal Kerning in Arabic lookup 7 per glyph data 0" uni0668 dx=-210 dy=0 dh=-210 dv=0 dx=0 dy=0 dh=0 dv=0
PairPos2: "'kern' Horizontal Kerning in Arabic lookup 7 per glyph data 0" uni066B dx=-158 dy=0 dh=-158 dv=0 dx=0 dy=0 dh=0 dv=0
PairPos2: "'kern' Horizontal Kerning in Arabic lookup 7 per glyph data 0" uni0660 dx=-210 dy=0 dh=-210 dv=0 dx=0 dy=0 dh=0 dv=0
PairPos2: "'kern' Horizontal Kerning in Arabic lookup 7 per glyph data 0" uni0665 dx=-184 dy=0 dh=-184 dv=0 dx=0 dy=0 dh=0 dv=0
PairPos2: "'kern' Horizontal Kerning in Arabic lookup 7 per glyph data 0" uni0664 dx=-53 dy=0 dh=-53 dv=0 dx=0 dy=0 dh=0 dv=0
EndChar

StartChar: uni0667
Encoding: 1639 1639 263
GlifName: uni0667
Width: 1372
VWidth: 0
GlyphClass: 2
Flags: HW
LayerCount: 2
Fore
SplineSet
1116 1312 m 257
 1241 1214 l 257
 989 888 854 621 758 0 c 257
 615 0 l 257
 521 611 389 880 131 1214 c 257
 256 1311 l 257
 466 1039 626 750 686 326 c 257
 745 749 906 1040 1116 1312 c 257
EndSplineSet
PairPos2: "'kern' Horizontal Kerning in Arabic lookup 7 per glyph data 0" uni066B dx=-131 dy=0 dh=-131 dv=0 dx=0 dy=0 dh=0 dv=0
PairPos2: "'kern' Horizontal Kerning in Arabic lookup 7 per glyph data 0" uni0668 dx=-158 dy=0 dh=-158 dv=0 dx=0 dy=0 dh=0 dv=0
PairPos2: "'kern' Horizontal Kerning in Arabic lookup 7 per glyph data 0" uni0665 dx=-105 dy=0 dh=-105 dv=0 dx=0 dy=0 dh=0 dv=0
PairPos2: "'kern' Horizontal Kerning in Arabic lookup 7 per glyph data 0" uni0660 dx=-105 dy=0 dh=-105 dv=0 dx=0 dy=0 dh=0 dv=0
EndChar

StartChar: uni0668
Encoding: 1640 1640 264
GlifName: uni0668
Width: 1372
VWidth: 0
GlyphClass: 2
Flags: HW
LayerCount: 2
Fore
SplineSet
256 -21 m 257
 131 76 l 257
 383 402 518 669 614 1290 c 257
 757 1290 l 257
 851 679 983 410 1241 76 c 257
 1116 -21 l 257
 906 251 746 541 686 965 c 257
 627 542 466 251 256 -21 c 257
EndSplineSet
PairPos2: "'kern' Horizontal Kerning in Arabic lookup 7 per glyph data 0" uni0667 dx=-158 dy=0 dh=-158 dv=0 dx=0 dy=0 dh=0 dv=0
PairPos2: "'kern' Horizontal Kerning in Arabic lookup 7 per glyph data 0" uni0662 dx=-184 dy=0 dh=-184 dv=0 dx=0 dy=0 dh=0 dv=0
PairPos2: "'kern' Horizontal Kerning in Arabic lookup 7 per glyph data 0" uni0663 dx=-210 dy=0 dh=-210 dv=0 dx=0 dy=0 dh=0 dv=0
EndChar

StartChar: uni0669
Encoding: 1641 1641 265
GlifName: uni0669
Width: 1097
VWidth: 0
GlyphClass: 2
Flags: HW
LayerCount: 2
Fore
SplineSet
698 573 m 257
 638 557 576 546 507 546 c 256
 312 546 132 625 132 868 c 256
 132 1078 242 1308 486 1308 c 256
 751 1308 832 1074 838 840 c 256
 840 744 842 660 848 586 c 257
 853 316 886 204 950 58 c 257
 806 -5 l 257
 733 169 702 351 698 573 c 257
686 731 m 257
 683 840 l 258
 678 1043 618 1150 486 1150 c 256
 370 1150 285 1035 285 875 c 256
 285 748 349 702 498 702 c 256
 570 702 626 713 686 731 c 257
EndSplineSet
PairPos2: "'kern' Horizontal Kerning in Arabic lookup 7 per glyph data 0" uni0665 dx=-53 dy=0 dh=-53 dv=0 dx=0 dy=0 dh=0 dv=0
PairPos2: "'kern' Horizontal Kerning in Arabic lookup 7 per glyph data 0" uni0668 dx=-158 dy=0 dh=-158 dv=0 dx=0 dy=0 dh=0 dv=0
PairPos2: "'kern' Horizontal Kerning in Arabic lookup 7 per glyph data 0" uni066B dx=210 dy=0 dh=210 dv=0 dx=0 dy=0 dh=0 dv=0
EndChar

StartChar: uni066B
Encoding: 1643 1643 267
GlifName: uni066B_
Width: 826
VWidth: 0
GlyphClass: 2
Flags: HW
LayerCount: 2
Fore
SplineSet
252 -622 m 257
 104 -565 l 257
 584 661 l 257
 732 604 l 257
 252 -622 l 257
EndSplineSet
PairPos2: "'kern' Horizontal Kerning in Arabic lookup 7 per glyph data 2" uni066B dx=-53 dy=0 dh=-53 dv=0 dx=0 dy=0 dh=0 dv=0
PairPos2: "'kern' Horizontal Kerning in Arabic lookup 7 per glyph data 2" zero dx=-53 dy=0 dh=-53 dv=0 dx=0 dy=0 dh=0 dv=0
PairPos2: "'kern' Horizontal Kerning in Arabic lookup 7 per glyph data 2" two dx=-105 dy=0 dh=-105 dv=0 dx=0 dy=0 dh=0 dv=0
PairPos2: "'kern' Horizontal Kerning in Arabic lookup 7 per glyph data 2" three dx=-79 dy=0 dh=-79 dv=0 dx=0 dy=0 dh=0 dv=0
PairPos2: "'kern' Horizontal Kerning in Arabic lookup 7 per glyph data 2" seven dx=-105 dy=0 dh=-105 dv=0 dx=0 dy=0 dh=0 dv=0
PairPos2: "'kern' Horizontal Kerning in Arabic lookup 7 per glyph data 1" uni066B dx=-53 dy=0 dh=-53 dv=0 dx=0 dy=0 dh=0 dv=0
PairPos2: "'kern' Horizontal Kerning in Arabic lookup 7 per glyph data 1" uni06F2 dx=-105 dy=0 dh=-105 dv=0 dx=0 dy=0 dh=0 dv=0
PairPos2: "'kern' Horizontal Kerning in Arabic lookup 7 per glyph data 1" uni06F3 dx=-79 dy=0 dh=-79 dv=0 dx=0 dy=0 dh=0 dv=0
PairPos2: "'kern' Horizontal Kerning in Arabic lookup 7 per glyph data 1" uni06F0 dx=-53 dy=0 dh=-53 dv=0 dx=0 dy=0 dh=0 dv=0
PairPos2: "'kern' Horizontal Kerning in Arabic lookup 7 per glyph data 1" uni06F7 dx=-105 dy=0 dh=-105 dv=0 dx=0 dy=0 dh=0 dv=0
PairPos2: "'kern' Horizontal Kerning in Arabic lookup 7 per glyph data 0" uni0667 dx=-105 dy=0 dh=-105 dv=0 dx=0 dy=0 dh=0 dv=0
PairPos2: "'kern' Horizontal Kerning in Arabic lookup 7 per glyph data 0" uni0662 dx=-105 dy=0 dh=-105 dv=0 dx=0 dy=0 dh=0 dv=0
PairPos2: "'kern' Horizontal Kerning in Arabic lookup 7 per glyph data 0" uni0663 dx=-158 dy=0 dh=-158 dv=0 dx=0 dy=0 dh=0 dv=0
EndChar

StartChar: uni066C
Encoding: 1644 1644 268
GlifName: uni066C_
Width: 616
VWidth: 0
GlyphClass: 2
Flags: HW
LayerCount: 2
Fore
SplineSet
238 -325 m 257
 159 -254 l 257
 229 -176 291 -82 315 0 c 257
 250 0 154 56 154 153 c 256
 154 236 214 308 298 308 c 256
 384 308 463 254 463 122 c 256
 463 -28 351 -220 238 -325 c 257
EndSplineSet
EndChar

StartChar: uni066D
Encoding: 1645 1645 269
GlifName: uni066D_
Width: 955
VWidth: 0
GlyphClass: 2
Flags: HW
LayerCount: 2
Fore
SplineSet
535 634 m 257
 421 634 l 257
 424 973 l 257
 132 802 l 257
 74 900 l 257
 369 1068 l 257
 74 1235 l 257
 132 1333 l 257
 424 1163 l 257
 421 1500 l 257
 535 1500 l 257
 532 1163 l 257
 824 1333 l 257
 881 1235 l 257
 587 1068 l 257
 881 900 l 257
 824 802 l 257
 532 973 l 257
 535 634 l 257
EndSplineSet
EndChar

StartChar: uni06F4
Encoding: 1780 1780 295
GlifName: uni06F_4
Width: 1207
VWidth: 0
GlyphClass: 2
Flags: HW
LayerCount: 2
Fore
SplineSet
446 676 m 257
 489 454 512 253 512 0 c 257
 355 0 l 257
 355 495 253 839 128 1245 c 257
 281 1293 l 257
 322 1186 368 1044 396 904 c 257
 406 1145 575 1312 766 1312 c 256
 845 1312 926 1288 998 1246 c 257
 931 1105 l 257
 879 1137 822 1154 760 1154 c 256
 620 1154 504 1033 504 865 c 256
 504 725 626 690 769 690 c 256
 853 690 938 704 1008 728 c 257
 1034 578 l 257
 951 550 865 537 782 537 c 256
 646 537 520 582 446 676 c 257
EndSplineSet
PairPos2: "'kern' Horizontal Kerning in Arabic lookup 7 per glyph data 1" uni06F8 dx=-53 dy=0 dh=-53 dv=0 dx=0 dy=0 dh=0 dv=0
PairPos2: "'kern' Horizontal Kerning in Arabic lookup 7 per glyph data 1" uni06F0 dx=-26 dy=0 dh=-26 dv=0 dx=0 dy=0 dh=0 dv=0
EndChar

StartChar: uni06F5
Encoding: 1781 1781 296
GlifName: uni06F_5
Width: 1274
VWidth: 0
GlyphClass: 2
Flags: HW
LayerCount: 2
Fore
SplineSet
634 122 m 257
 596 36 525 -5 419 -5 c 256
 249 -5 119 121 119 357 c 256
 119 584 220 828 524 1097 c 257
 490 1125 446 1158 410 1184 c 257
 499 1308 l 257
 563 1264 625 1218 680 1167 c 256
 974 894 1155 620 1155 351 c 256
 1155 115 1023 -5 858 -5 c 256
 756 -5 671 37 634 122 c 257
589 326 m 257
 682 326 l 257
 690 288 l 258
 705 193 775 152 852 152 c 256
 925 152 1003 194 1003 353 c 256
 1003 539 871 753 632 995 c 257
 343 749 271 536 271 369 c 256
 271 198 349 152 426 152 c 256
 507 152 565 197 582 288 c 258
 589 326 l 257
EndSplineSet
PairPos2: "'kern' Horizontal Kerning in Arabic lookup 7 per glyph data 1" uni06F9 dx=-79 dy=0 dh=-79 dv=0 dx=0 dy=0 dh=0 dv=0
PairPos2: "'kern' Horizontal Kerning in Arabic lookup 7 per glyph data 1" uni06F7 dx=-105 dy=0 dh=-105 dv=0 dx=0 dy=0 dh=0 dv=0
PairPos2: "'kern' Horizontal Kerning in Arabic lookup 7 per glyph data 1" uni06F3 dx=-26 dy=0 dh=-26 dv=0 dx=0 dy=0 dh=0 dv=0
PairPos2: "'kern' Horizontal Kerning in Arabic lookup 7 per glyph data 1" uni06F2 dx=-26 dy=0 dh=-26 dv=0 dx=0 dy=0 dh=0 dv=0
PairPos2: "'kern' Horizontal Kerning in Arabic lookup 7 per glyph data 1" uni06F1 dx=53 dy=0 dh=53 dv=0 dx=0 dy=0 dh=0 dv=0
EndChar

StartChar: uni06F6
Encoding: 1782 1782 297
GlifName: uni06F_6
Width: 1099
VWidth: 0
GlyphClass: 2
Flags: HW
LayerCount: 2
Fore
SplineSet
592 695 m 256
 714 695 822 732 908 771 c 257
 975 624 l 257
 683 484 454 260 272 -10 c 257
 136 68 l 257
 267 264 409 416 579 545 c 257
 371 546 142 653 142 905 c 256
 142 1140 317 1315 544 1315 c 256
 682 1315 774 1260 847 1196 c 257
 745 1078 l 257
 697 1124 632 1158 544 1158 c 256
 404 1158 299 1057 299 910 c 256
 299 762 429 695 592 695 c 256
EndSplineSet
EndChar

StartChar: uniE000
Encoding: 57344 57344 301
GlifName: uniE_000
Width: 120
VWidth: 0
GlyphClass: 2
Flags: HW
LayerCount: 2
Fore
SplineSet
0 158 m 258
 121 158 l 257
 121 0 l 257
 0 0 l 258
 -44 0 -79 35 -79 79 c 256
 -79 123 -44 158 0 158 c 258
EndSplineSet
EndChar

StartChar: uniE001
Encoding: 57345 57345 302
GlifName: uniE_001
Width: 330
VWidth: 0
GlyphClass: 2
Flags: HW
LayerCount: 2
Fore
SplineSet
0 158 m 258
 331 158 l 257
 331 0 l 257
 0 0 l 258
 -44 0 -79 35 -79 79 c 256
 -79 123 -44 158 0 158 c 258
EndSplineSet
EndChar

StartChar: uniE002
Encoding: 57346 57346 303
GlifName: uniE_002
Width: 464
VWidth: 0
GlyphClass: 2
Flags: HW
LayerCount: 2
Fore
SplineSet
0 158 m 258
 465 158 l 257
 465 0 l 257
 0 0 l 258
 -44 0 -79 35 -79 79 c 256
 -79 123 -44 158 0 158 c 258
EndSplineSet
EndChar

StartChar: uniE003
Encoding: 57347 57347 304
GlifName: uniE_003
Width: 1850
VWidth: 0
GlyphClass: 2
Flags: HW
LayerCount: 2
Fore
SplineSet
1271 1344 m 257
 1352 1264 l 257
 194 -46 l 257
 112 35 l 257
 1271 1344 l 257
EndSplineSet
EndChar

StartChar: uniE004
Encoding: 57348 57348 305
GlifName: uniE_004
Width: 1142
VWidth: 0
GlyphClass: 2
Flags: HW
LayerCount: 2
Fore
SplineSet
174 -66 m 257
 89 -2 l 257
 853 976 l 257
 939 912 l 257
 174 -66 l 257
EndSplineSet
EndChar

StartChar: uniE005
Encoding: 57349 57349 306
GlifName: uniE_005
Width: 1535
VWidth: 0
GlyphClass: 2
Flags: HW
LayerCount: 2
Fore
SplineSet
1427 -2 m 257
 1339 -74 l 257
 850 513 l 257
 938 586 l 257
 1427 -2 l 257
EndSplineSet
EndChar

StartChar: uniE006
Encoding: 57350 57350 307
GlifName: uniE_006
Width: 1203
VWidth: 0
GlyphClass: 2
Flags: HW
LayerCount: 2
Fore
SplineSet
240 159 m 257
 240 265 l 257
 964 265 l 257
 964 159 l 257
 240 159 l 257
240 434 m 257
 240 539 l 257
 964 539 l 257
 964 434 l 257
 240 434 l 257
EndSplineSet
EndChar

StartChar: uniE007
Encoding: 57351 57351 308
GlifName: uniE_007
Width: 912
VWidth: 0
GlyphClass: 2
Flags: HW
LayerCount: 2
Fore
SplineSet
578 1599 m 257
 548 1615 511 1626 480 1626 c 256
 404 1626 360 1570 360 1524 c 256
 360 1477 395 1464 470 1442 c 256
 536 1423 595 1393 595 1308 c 256
 595 1195 483 1144 368 1144 c 256
 306 1144 254 1156 208 1178 c 257
 242 1250 l 257
 276 1234 315 1223 368 1223 c 256
 458 1223 516 1253 516 1297 c 256
 516 1338 495 1353 433 1371 c 256
 366 1391 282 1420 282 1519 c 256
 282 1630 371 1704 480 1704 c 256
 531 1704 570 1692 609 1672 c 257
 578 1599 l 257
EndSplineSet
EndChar

StartChar: uniE008
Encoding: 57352 57352 309
GlifName: uniE_008
Width: 1527
VWidth: 0
GlyphClass: 2
Flags: HW
LayerCount: 2
Fore
SplineSet
560 1193 m 256
 560 1277 496 1350 412 1350 c 256
 328 1350 263 1277 263 1193 c 256
 263 1109 329 1042 412 1042 c 256
 494 1042 560 1109 560 1193 c 256
669 1194 m 256
 669 1052 556 933 412 933 c 256
 268 933 152 1052 152 1194 c 256
 152 1331 260 1460 412 1460 c 256
 564 1460 669 1331 669 1194 c 256
EndSplineSet
EndChar

StartChar: uniE009
Encoding: 57353 57353 310
GlifName: uniE_009
Width: 1203
VWidth: 0
GlyphClass: 2
Flags: HW
LayerCount: 2
Fore
SplineSet
532 1570 m 257
 624 1570 l 257
 624 -222 l 257
 532 -222 l 257
 532 1570 l 257
EndSplineSet
EndChar

StartChar: uniE00A
Encoding: 57354 57354 311
GlifName: uniE_00A_
Width: 1275
VWidth: 0
GlyphClass: 2
Flags: HW
LayerCount: 2
Fore
SplineSet
97 488 m 257
 97 598 l 257
 734 598 l 257
 734 488 l 257
 97 488 l 257
EndSplineSet
EndChar

StartChar: uniE00B
Encoding: 57355 57355 312
GlifName: uniE_00B_
Width: 1163
VWidth: 0
GlyphClass: 2
Flags: HW
LayerCount: 2
Fore
SplineSet
788 337 m 257
 745 120 620 -21 398 -21 c 256
 241 -21 117 62 117 220 c 256
 117 443 354 554 590 554 c 256
 664 554 731 544 797 526 c 257
 746 434 l 257
 700 446 648 452 599 452 c 256
 429 452 267 366 267 234 c 256
 267 144 329 107 432 107 c 256
 578 107 686 195 717 345 c 257
 788 337 l 257
EndSplineSet
EndChar

StartChar: uniE00C
Encoding: 57356 57356 313
GlifName: uniE_00C_
Width: 1613
VWidth: 0
GlyphClass: 2
Flags: HW
LayerCount: 2
Fore
SplineSet
832 602 m 257
 879 776 965 954 1193 954 c 256
 1432 954 1488 790 1488 590 c 258
 1488 0 l 257
 1330 0 l 257
 1330 576 l 258
 1330 718 1268 815 1122 815 c 256
 980 815 909 694 879 580 c 257
 832 602 l 257
EndSplineSet
EndChar

StartChar: uniE00D
Encoding: 57357 57357 314
GlifName: uniE_00D_
Width: 1115
VWidth: 0
GlyphClass: 2
Flags: HW
LayerCount: 2
Fore
SplineSet
222 544 m 257
 317 782 416 954 655 954 c 256
 894 954 982 796 982 550 c 258
 982 0 l 257
 825 0 l 257
 825 533 l 258
 825 725 744 815 604 815 c 256
 434 815 358 687 288 511 c 257
 222 544 l 257
EndSplineSet
EndChar

StartChar: uniE00E
Encoding: 57358 57358 315
GlifName: uniE_00E_
Width: 791
VWidth: 0
GlyphClass: 2
Flags: HW
LayerCount: 2
Fore
SplineSet
288 548 m 257
 224 556 l 257
 256 812 361 1108 644 1108 c 258
 695 1108 l 257
 695 962 l 257
 626 962 l 258
 412 962 318 775 288 548 c 257
EndSplineSet
EndChar

StartChar: uniE00F
Encoding: 57359 57359 316
GlifName: uniE_00F_
Width: 1205
VWidth: 0
GlyphClass: 2
Flags: HW
LayerCount: 2
Fore
SplineSet
602 829 m 256
 412 829 310 673 310 466 c 256
 310 259 412 104 602 104 c 256
 792 104 894 259 894 466 c 256
 894 673 792 829 602 829 c 256
646 954 m 256
 910 954 1051 731 1051 466 c 256
 1051 201 910 -21 646 -21 c 256
 382 -21 242 201 242 466 c 256
 242 731 382 954 646 954 c 256
EndSplineSet
EndChar

StartChar: uniE020
Encoding: 57376 57376 326
GlifName: uniE_020
Width: 893
VWidth: 0
GlyphClass: 2
Flags: HW
LayerCount: 2
Fore
SplineSet
674 641 m 257
 587 568 l 257
 551 611 495 650 411 650 c 256
 312 650 229 568 229 462 c 256
 229 331 318 274 461 257 c 257
 741 372 l 257
 784 266 l 257
 153 6 l 257
 110 112 l 257
 306 193 l 257
 211 225 114 306 114 447 c 256
 114 631 248 764 411 764 c 256
 535 764 622 703 674 641 c 257
EndSplineSet
EndChar

StartChar: uniE021
Encoding: 57377 57377 327
GlifName: uniE_021
Width: 525
VWidth: 0
GlyphClass: 2
Flags: HW
LayerCount: 2
Fore
SplineSet
551 1708 m 257
 640 1667 l 257
 580 1534 510 1486 405 1486 c 256
 360 1486 303 1501 239 1524 c 256
 191 1542 150 1555 117 1555 c 256
 54 1555 10 1501 -34 1438 c 257
 -114 1487 l 257
 -42 1622 43 1674 125 1674 c 256
 171 1674 207 1666 277 1640 c 256
 340 1616 381 1601 421 1601 c 256
 471 1601 515 1637 551 1708 c 257
341 1290 m 257
 341 20 l 257
 184 20 l 257
 184 1290 l 257
 341 1290 l 257
EndSplineSet
EndChar

StartChar: uniE022
Encoding: 57378 57378 328
GlifName: uniE_022
Width: 525
VWidth: 0
GlyphClass: 2
Flags: HW
LayerCount: 2
Fore
SplineSet
341 20 m 257
 184 20 l 257
 184 1290 l 257
 341 1290 l 257
 341 20 l 257
EndSplineSet
EndChar

StartChar: uniE023
Encoding: 57379 57379 329
GlifName: uniE_023
Width: 1408
VWidth: 0
GlyphClass: 2
Flags: HW
LayerCount: 2
Fore
SplineSet
1259 -493 m 257
 1315 -640 l 257
 1147 -706 974 -748 766 -748 c 256
 414 -748 104 -599 104 -238 c 256
 104 196 556 411 1058 551 c 257
 612 711 l 258
 572 724 536 729 506 729 c 256
 379 729 309 640 287 448 c 257
 140 470 l 257
 168 701 283 886 508 886 c 256
 559 886 613 878 671 856 c 257
 1278 633 l 257
 1278 457 l 257
 690 301 261 103 261 -238 c 256
 261 -471 458 -587 760 -587 c 256
 951 -587 1110 -549 1259 -493 c 257
EndSplineSet
EndChar

StartChar: uniE024
Encoding: 57380 57380 330
GlifName: uniE_024
Width: 972
VWidth: 0
GlyphClass: 2
Flags: HW
LayerCount: 2
Fore
SplineSet
869 342 m 256
 869 88 611 0 370 0 c 256
 275 0 177 14 88 38 c 257
 125 187 l 257
 198 169 284 157 368 157 c 256
 571 157 712 219 712 349 c 256
 712 493 612 655 389 843 c 257
 490 962 l 257
 728 762 869 564 869 342 c 256
EndSplineSet
EndChar

StartChar: uniE025
Encoding: 57381 57381 331
GlifName: uniE_025
Width: 836
VWidth: 0
GlyphClass: 2
Flags: HW
LayerCount: 2
Fore
SplineSet
472 581 m 257
 618 640 l 257
 688 465 734 292 734 136 c 256
 734 -181 499 -417 138 -548 c 257
 84 -400 l 257
 398 -285 576 -111 576 136 c 256
 576 263 536 420 472 581 c 257
EndSplineSet
EndChar

StartChar: uniE026
Encoding: 57382 57382 332
GlifName: uniE_026
Width: 2485
VWidth: 0
GlyphClass: 2
Flags: HW
LayerCount: 2
Fore
SplineSet
2324 761 m 257
 2358 642 2382 522 2382 394 c 256
 2382 192 2288 0 2056 0 c 256
 1956 0 1826 39 1781 164 c 257
 1737 50 1658 0 1548 0 c 256
 1460 0 1392 25 1334 76 c 257
 1339 -280 1109 -497 724 -497 c 256
 334 -497 104 -294 104 92 c 256
 104 274 147 467 182 574 c 257
 327 530 l 257
 296 426 258 262 258 103 c 256
 258 -188 392 -338 724 -338 c 256
 1046 -338 1190 -198 1190 72 c 256
 1190 254 1141 393 1067 584 c 257
 1215 650 l 257
 1310 356 l 258
 1357 212 1405 158 1537 158 c 256
 1639 158 1697 220 1712 394 c 258
 1732 614 l 257
 1876 606 l 257
 1862 426 l 258
 1845 222 1934 158 2053 158 c 256
 2181 158 2225 247 2225 394 c 256
 2225 506 2203 616 2172 721 c 257
 2324 761 l 257
EndSplineSet
EndChar

StartChar: uniE027
Encoding: 57383 57383 333
GlifName: uniE_027
Width: 2409
VWidth: 0
GlyphClass: 2
Flags: HW
LayerCount: 2
Fore
SplineSet
1703 0 m 256
 1578 0 1450 24 1343 72 c 257
 1329 -287 1112 -500 726 -500 c 256
 330 -500 104 -298 104 94 c 256
 104 276 147 467 182 574 c 257
 328 529 l 257
 295 427 258 258 258 100 c 256
 258 -195 393 -340 727 -340 c 256
 1055 -340 1190 -188 1190 72 c 256
 1190 250 1128 448 1078 581 c 257
 1225 644 l 257
 1271 525 1305 400 1327 278 c 257
 1503 601 1741 744 1940 744 c 256
 2133 744 2306 615 2306 402 c 256
 2306 112 1970 0 1703 0 c 256
1455 196 m 257
 1530 170 1618 158 1703 158 c 256
 1977 158 2149 261 2149 397 c 256
 2149 511 2063 587 1935 587 c 256
 1802 587 1615 495 1455 196 c 257
EndSplineSet
EndChar

StartChar: uniE028
Encoding: 57384 57384 334
GlifName: uniE_028
Width: 1554
VWidth: 0
GlyphClass: 2
Flags: HW
LayerCount: 2
Fore
SplineSet
584 181 m 257
 584 158 l 257
 1217 163 1293 299 1293 447 c 256
 1293 552 1214 619 1099 619 c 256
 967 619 716 504 584 181 c 257
414 158 m 257
 414 1290 l 257
 572 1290 l 257
 572 426 l 257
 738 679 948 777 1111 777 c 256
 1277 777 1450 662 1450 455 c 256
 1450 163 1221 0 493 0 c 258
 88 0 l 257
 88 158 l 257
 414 158 l 257
EndSplineSet
EndChar

StartChar: uniE029
Encoding: 57385 57385 335
GlifName: uniE_029
Width: 1346
VWidth: 0
GlyphClass: 2
Flags: HW
LayerCount: 2
Fore
SplineSet
995 987 m 257
 881 892 l 257
 826 957 742 1019 618 1019 c 256
 472 1019 338 902 338 730 c 256
 338 565 502 500 723 500 c 256
 821 500 923 515 1014 531 c 257
 1041 368 l 257
 603 311 261 126 261 -210 c 256
 261 -472 507 -570 774 -570 c 256
 916 -570 1068 -542 1186 -494 c 257
 1249 -639 l 257
 1111 -700 942 -734 775 -734 c 256
 431 -734 104 -588 104 -224 c 256
 104 46 286 264 500 370 c 257
 344 410 180 514 180 710 c 256
 180 983 388 1177 618 1177 c 256
 801 1177 919 1080 995 987 c 257
EndSplineSet
EndChar

StartChar: uniE02A
Encoding: 57386 57386 336
GlifName: uniE_02A_
Width: 851
VWidth: 0
GlyphClass: 2
Flags: HW
LayerCount: 2
Fore
SplineSet
0 158 m 258
 852 158 l 257
 852 0 l 257
 0 0 l 258
 -44 0 -79 35 -79 79 c 256
 -79 123 -44 158 0 158 c 258
EndSplineSet
EndChar

StartChar: uniE02B
Encoding: 57387 57387 337
GlifName: uniE_02B_
Width: 1570
VWidth: 0
GlyphClass: 2
Flags: HW
LayerCount: 2
Fore
SplineSet
1246 1310 m 257
 1403 1310 l 257
 1403 543 l 258
 1403 359 1370 233 1292 148 c 256
 1194 40 1065 0 729 0 c 256
 439 0 104 18 104 390 c 256
 104 480 120 583 140 664 c 257
 291 628 l 257
 273 552 259 463 259 398 c 256
 259 178 434 158 742 158 c 256
 1044 158 1115 176 1180 248 c 256
 1232 306 1246 398 1246 543 c 258
 1246 1310 l 257
EndSplineSet
EndChar

StartChar: uniE02C
Encoding: 57388 57388 338
GlifName: uniE_02C_
Width: 1341
VWidth: 0
GlyphClass: 2
Flags: HW
LayerCount: 2
Fore
SplineSet
1016 1290 m 257
 1174 1290 l 257
 1174 48 l 258
 1174 -333 970 -529 618 -529 c 256
 304 -529 104 -357 104 -66 c 256
 104 66 134 211 197 369 c 257
 340 310 l 257
 286 162 260 44 260 -57 c 256
 260 -257 385 -371 636 -371 c 256
 896 -371 1016 -243 1016 48 c 258
 1016 1290 l 257
EndSplineSet
EndChar

StartChar: uniE02D
Encoding: 57389 57389 339
GlifName: uniE_02D_
Width: 1247
VWidth: 0
GlyphClass: 2
Flags: HW
LayerCount: 2
Fore
SplineSet
826 158 m 256
 926 158 986 194 986 321 c 256
 986 467 902 572 793 572 c 256
 641 572 561 406 543 224 c 257
 621 194 738 158 826 158 c 256
822 0 m 256
 716 0 611 29 530 61 c 256
 482 80 457 88 412 88 c 256
 322 88 261 24 261 -104 c 258
 261 -811 l 257
 104 -811 l 257
 104 -104 l 258
 104 74 214 229 390 243 c 257
 414 437 509 732 797 732 c 256
 1022 732 1144 522 1144 323 c 256
 1144 91 981 0 822 0 c 256
EndSplineSet
EndChar

StartChar: uniE02E
Encoding: 57390 57390 340
GlifName: uniE_02E_
Width: 876
VWidth: 0
GlyphClass: 2
Flags: HW
LayerCount: 2
Fore
SplineSet
439 158 m 256
 560 158 620 218 620 322 c 256
 620 432 547 561 439 668 c 257
 331 562 256 431 256 322 c 256
 256 218 318 158 439 158 c 256
439 0 m 256
 240 0 104 132 104 320 c 256
 104 548 277 741 439 880 c 257
 601 740 773 548 773 320 c 256
 773 133 638 0 439 0 c 256
EndSplineSet
EndChar

StartChar: uniE02F
Encoding: 57391 57391 341
GlifName: uniE_02F_
Width: 940
VWidth: 0
GlyphClass: 2
Flags: HW
LayerCount: 2
Fore
SplineSet
672 25 m 257
 613 9 548 -1 476 -1 c 256
 284 -1 129 92 129 313 c 256
 129 522 261 754 471 754 c 256
 777 754 837 344 837 122 c 256
 837 -219 605 -429 150 -545 c 257
 104 -395 l 257
 463 -304 639 -157 672 25 c 257
682 184 m 257
 668 392 604 596 470 596 c 256
 376 596 277 469 277 316 c 256
 277 194 344 153 486 153 c 256
 559 153 620 164 682 184 c 257
EndSplineSet
EndChar

StartChar: uniE030
Encoding: 57392 57392 342
GlifName: uniE_030
Width: 0
VWidth: 0
GlyphClass: 2
Flags: H
LayerCount: 2
Fore
SplineSet
-241 1960 m 256
 -241 1899 -222 1843 -191 1798 c 257
 -254 1758 l 257
 -293 1816 -317 1886 -317 1961 c 256
 -317 2161 -156 2322 44 2322 c 257
 44 2248 l 257
 -113 2248 -241 2120 -241 1960 c 256
EndSplineSet
EndChar

StartChar: uniE031
Encoding: 57393 57393 343
GlifName: uniE_031
Width: 0
VWidth: 0
GlyphClass: 2
Flags: H
LayerCount: 2
Fore
SplineSet
194 1842 m 257
 227 1770 l 257
 -194 1579 l 257
 -227 1650 l 257
 194 1842 l 257
EndSplineSet
EndChar

StartChar: uniE032
Encoding: 57394 57394 344
GlifName: uniE_032
Width: 0
VWidth: 0
GlyphClass: 2
Flags: H
LayerCount: 2
Fore
SplineSet
33 1784 m 257
 -39 1813 -115 1868 -115 1955 c 256
 -115 2051 -27 2123 55 2123 c 256
 156 2123 200 2028 200 1964 c 256
 200 1758 -20 1625 -181 1580 c 257
 -204 1656 l 257
 -120 1680 -30 1725 33 1784 c 257
86 1848 m 257
 108 1884 121 1924 121 1964 c 256
 121 2002 95 2044 54 2044 c 256
 14 2044 -36 2001 -36 1956 c 256
 -36 1914 9 1874 86 1848 c 257
EndSplineSet
EndChar

StartChar: uniE033
Encoding: 57395 57395 345
GlifName: uniE_033
Width: 0
VWidth: 0
GlyphClass: 2
Flags: H
LayerCount: 2
Fore
SplineSet
196 1768 m 256
 196 1816 186 1861 174 1907 c 257
 250 1926 l 257
 263 1877 274 1824 274 1766 c 256
 274 1668 206 1613 130 1613 c 256
 80 1613 27 1635 0 1687 c 257
 -29 1634 -80 1613 -130 1613 c 256
 -206 1613 -274 1669 -274 1767 c 256
 -274 1822 -263 1877 -251 1922 c 257
 -174 1904 l 257
 -185 1861 -196 1815 -196 1768 c 256
 -196 1702 -153 1691 -119 1691 c 256
 -84 1691 -37 1705 -37 1790 c 258
 -37 1866 l 257
 37 1866 l 257
 37 1790 l 258
 37 1705 83 1691 119 1691 c 256
 152 1691 196 1702 196 1768 c 256
EndSplineSet
EndChar

StartChar: uniE034
Encoding: 57396 57396 346
GlifName: uniE_034
Width: 0
VWidth: 0
GlyphClass: 2
Flags: H
LayerCount: 2
Fore
SplineSet
0 1941 m 256
 -68 1941 -122 1888 -122 1820 c 256
 -122 1752 -68 1696 0 1696 c 256
 67 1696 122 1753 122 1820 c 256
 122 1887 68 1941 0 1941 c 256
0 2020 m 256
 110 2020 201 1932 201 1820 c 256
 201 1708 112 1618 0 1618 c 256
 -112 1618 -201 1710 -201 1820 c 256
 -201 1930 -112 2020 0 2020 c 256
EndSplineSet
EndChar

StartChar: uniE035
Encoding: 57397 57397 347
GlifName: uniE_035
Width: 0
VWidth: 0
GlyphClass: 2
Flags: H
LayerCount: 2
Fore
SplineSet
-264 1620 m 257
 -238 1674 -178 1742 -91 1742 c 256
 -53 1742 -16 1727 22 1700 c 256
 52 1679 72 1672 90 1672 c 256
 130 1672 162 1701 188 1750 c 257
 260 1716 l 257
 230 1653 178 1594 90 1594 c 256
 51 1594 18 1607 -26 1637 c 256
 -54 1656 -74 1664 -91 1664 c 256
 -133 1664 -173 1626 -192 1586 c 257
 -264 1620 l 257
EndSplineSet
EndChar

StartChar: uniE036
Encoding: 57398 57398 348
GlifName: uniE_036
Width: 0
VWidth: 0
GlyphClass: 2
Flags: H
LayerCount: 2
Fore
SplineSet
-194 1578 m 257
 -227 1650 l 257
 -116 1700 l 257
 -160 1752 -184 1814 -184 1872 c 256
 -184 1975 -108 2058 27 2064 c 258
 108 2067 l 257
 111 1988 l 257
 27 1986 l 258
 -68 1983 -105 1933 -105 1872 c 256
 -105 1829 -84 1775 -41 1734 c 257
 194 1841 l 257
 227 1770 l 257
 -194 1578 l 257
EndSplineSet
EndChar

StartChar: uniE037
Encoding: 57399 57399 349
GlifName: uniE_037
Width: 0
VWidth: 0
GlyphClass: 2
Flags: H
LayerCount: 2
Fore
SplineSet
-250 1894 m 257
 -186 1942 l 257
 0 1708 l 257
 186 1942 l 257
 250 1894 l 257
 0 1577 l 257
 -250 1894 l 257
EndSplineSet
EndChar

StartChar: uniE038
Encoding: 57400 57400 350
GlifName: uniE_038
Width: 1751
VWidth: 0
GlyphClass: 2
Flags: HW
LayerCount: 2
Fore
SplineSet
1598 747 m 257
 1627 651 1647 542 1647 442 c 256
 1647 78 1348 0 876 0 c 256
 404 0 104 78 104 442 c 256
 104 542 124 651 153 747 c 257
 305 702 l 257
 279 619 261 525 261 446 c 256
 261 220 442 158 876 158 c 256
 1310 158 1490 220 1490 446 c 256
 1490 525 1472 619 1446 702 c 257
 1598 747 l 257
EndSplineSet
EndChar

StartChar: uniE039
Encoding: 57401 57401 351
GlifName: uniE_039
Width: 1476
VWidth: 0
GlyphClass: 2
Flags: HW
LayerCount: 2
Fore
SplineSet
1218 184 m 257
 1204 392 1139 596 1005 596 c 256
 911 596 812 470 812 317 c 256
 812 195 880 154 1022 154 c 256
 1095 154 1156 164 1218 184 c 257
1212 29 m 257
 1152 13 1084 0 1012 0 c 256
 820 0 665 93 665 314 c 256
 665 523 797 755 1007 755 c 256
 1310 755 1373 350 1373 108 c 256
 1373 -315 1105 -529 700 -529 c 256
 398 -529 104 -385 104 -10 c 256
 104 160 144 294 204 440 c 257
 345 377 l 257
 291 244 261 127 261 -10 c 256
 261 -261 439 -371 710 -371 c 256
 1028 -371 1190 -229 1212 29 c 257
EndSplineSet
EndChar

StartChar: uniE03A
Encoding: 57402 57402 352
GlifName: uniE_03A_
Width: 0
VWidth: 0
GlyphClass: 2
Flags: H
LayerCount: 2
Fore
SplineSet
-40 1960 m 257
 40 1960 l 257
 40 1625 l 257
 -40 1625 l 257
 -40 1960 l 257
EndSplineSet
EndChar

StartChar: uniE03B
Encoding: 57403 57403 353
GlifName: uniE_03B_
Width: 1721
VWidth: 0
GlyphClass: 2
Flags: HW
LayerCount: 2
Fore
SplineSet
1459 559 m 257
 1445 769 1378 973 1244 973 c 256
 1150 973 1052 846 1052 693 c 256
 1052 571 1118 528 1260 528 c 256
 1334 528 1396 538 1459 559 c 257
1618 468 m 256
 1618 78 1365 0 839 0 c 256
 325 0 104 81 104 440 c 256
 104 540 125 646 154 742 c 257
 306 697 l 257
 280 614 262 522 262 443 c 256
 262 213 370 158 886 158 c 256
 1298 158 1461 196 1467 409 c 257
 1399 389 1330 378 1252 378 c 256
 1062 378 906 465 906 685 c 256
 906 892 1033 1130 1246 1130 c 256
 1580 1130 1618 652 1618 468 c 256
EndSplineSet
EndChar

StartChar: uniE03C
Encoding: 57404 57404 354
GlifName: uniE_03C_
Width: 1785
VWidth: 0
GlyphClass: 2
Flags: HW
LayerCount: 2
Fore
SplineSet
154 742 m 257
 306 697 l 257
 280 614 262 522 262 443 c 256
 262 211 404 158 762 158 c 256
 1083 158 1270 204 1270 370 c 256
 1270 522 1040 738 800 912 c 257
 800 1087 l 257
 1048 1249 1367 1378 1646 1439 c 257
 1679 1284 l 257
 1454 1234 1182 1133 970 1007 c 257
 970 980 l 257
 1205 805 1427 588 1427 362 c 256
 1427 42 1071 0 751 0 c 256
 359 0 104 82 104 440 c 256
 104 540 125 646 154 742 c 257
EndSplineSet
EndChar

StartChar: uniE03D
Encoding: 57405 57405 355
GlifName: uniE_03D_
Width: 1482
VWidth: 0
GlyphClass: 2
Flags: HW
LayerCount: 2
Fore
SplineSet
1118 562 m 257
 1264 624 l 257
 1315 492 1380 298 1380 78 c 256
 1380 -295 1129 -502 732 -502 c 256
 336 -502 103 -295 103 97 c 256
 103 279 147 466 182 574 c 257
 328 528 l 257
 295 426 258 260 258 102 c 256
 258 -193 402 -343 732 -343 c 256
 1062 -343 1222 -190 1222 70 c 256
 1222 252 1169 433 1118 562 c 257
EndSplineSet
EndChar

StartChar: uniE03E
Encoding: 57406 57406 356
GlifName: uniE_03E_
Width: 1456
VWidth: 0
GlyphClass: 2
Flags: HW
LayerCount: 2
Fore
SplineSet
1305 747 m 257
 1266 603 l 257
 1208 621 1142 630 1085 630 c 256
 865 630 724 486 724 328 c 256
 724 188 826 178 994 167 c 256
 1195 152 1354 106 1354 -130 c 256
 1354 -412 1051 -529 716 -529 c 256
 347 -529 105 -372 105 12 c 256
 105 155 133 314 160 414 c 257
 308 376 l 257
 286 290 260 143 260 19 c 256
 260 -261 411 -371 725 -371 c 256
 1021 -371 1195 -278 1195 -130 c 256
 1195 -25 1155 -4 976 9 c 256
 777 24 568 56 568 316 c 256
 568 573 769 786 1080 786 c 256
 1157 786 1235 773 1305 747 c 257
EndSplineSet
EndChar

StartChar: uniE03F
Encoding: 57407 57407 357
GlifName: uniE_03F_
Width: 1845
VWidth: 0
GlyphClass: 2
Flags: HW
LayerCount: 2
Fore
SplineSet
1845 158 m 257
 1845 0 l 257
 1844 0 l 257
 1607 0 1466 97 1384 272 c 257
 1307 32 1030 0 758 0 c 256
 366 0 104 82 104 440 c 256
 104 540 125 646 154 742 c 257
 306 697 l 257
 280 614 262 522 262 443 c 256
 262 211 412 158 770 158 c 256
 1091 158 1270 204 1270 370 c 256
 1270 522 1040 738 800 912 c 257
 800 1087 l 257
 1048 1249 1367 1378 1646 1439 c 257
 1679 1284 l 257
 1454 1234 1182 1133 970 1007 c 257
 970 980 l 257
 1246 783 1361 596 1447 432 c 256
 1539 257 1609 158 1844 158 c 257
 1845 158 l 257
EndSplineSet
EndChar

StartChar: uniE040
Encoding: 57408 57408 358
GlifName: uniE_040
Width: 1655
VWidth: 0
GlyphClass: 2
Flags: HW
LayerCount: 2
Fore
SplineSet
181 574 m 257
 328 529 l 257
 294 426 258 265 258 106 c 256
 258 -185 395 -343 732 -343 c 256
 1059 -343 1222 -196 1222 74 c 256
 1222 251 1166 430 1117 562 c 257
 1264 624 l 257
 1350 351 l 258
 1391 217 1462 157 1655 157 c 258
 1656 157 l 257
 1656 -0 l 257
 1655 -0 l 258
 1538 0 1451 30 1377 78 c 257
 1386 -286 1122 -502 732 -502 c 256
 336 -502 103 -294 103 94 c 256
 103 276 146 467 181 574 c 257
EndSplineSet
EndChar

StartChar: uniE041
Encoding: 57409 57409 359
GlifName: uniE_041
Width: 564
VWidth: 0
GlyphClass: 2
Flags: HW
LayerCount: 2
Fore
SplineSet
400 780 m 257
 436 672 462 542 462 427 c 256
 462 179 339 0 0 0 c 256
 -44 0 -79 35 -79 79 c 256
 -79 123 -44 158 0 158 c 256
 234 158 310 269 310 427 c 256
 310 526 279 642 251 732 c 257
 400 780 l 257
EndSplineSet
EndChar

StartChar: uniE042
Encoding: 57410 57410 360
GlifName: uniE_042
Width: 805
VWidth: 0
GlyphClass: 2
Flags: HW
LayerCount: 2
Fore
SplineSet
0 158 m 256
 140 158 223 187 270 255 c 256
 312 315 325 405 325 528 c 258
 325 637 l 257
 482 637 l 257
 482 528 l 258
 482 411 493 324 531 265 c 256
 576 192 659 158 804 158 c 258
 806 158 l 257
 806 0 l 257
 804 0 l 257
 612 0 455 67 403 213 c 257
 351 67 192 0 0 0 c 256
 -44 0 -79 35 -79 79 c 256
 -79 123 -44 158 0 158 c 256
EndSplineSet
EndChar

StartChar: uniE043
Encoding: 57411 57411 361
GlifName: uniE_043
Width: 1357
VWidth: 0
GlyphClass: 2
Flags: HW
LayerCount: 2
Fore
SplineSet
1358 158 m 257
 1358 0 l 257
 1187 0 l 257
 1247 -45 1287 -122 1287 -194 c 256
 1287 -452 972 -575 704 -575 c 256
 306 -575 104 -373 104 -12 c 256
 104 167 144 366 194 526 c 257
 343 478 l 257
 298 333 260 146 260 -14 c 256
 260 -292 394 -418 704 -418 c 256
 949 -418 1132 -321 1132 -184 c 256
 1132 -27 918 -1 699 -1 c 257
 699 158 l 257
 1358 158 l 257
EndSplineSet
EndChar

StartChar: uniE044
Encoding: 57412 57412 362
GlifName: uniE_044
Width: 593
VWidth: 0
GlyphClass: 2
Flags: HW
LayerCount: 2
Fore
SplineSet
168 1290 m 257
 326 1290 l 257
 326 410 l 258
 326 320 339 260 374 220 c 256
 415 173 473 158 594 158 c 257
 594 158 l 257
 594 0 l 257
 594 0 l 257
 440 0 341 37 267 113 c 256
 201 181 168 279 168 410 c 258
 168 1290 l 257
EndSplineSet
EndChar

StartChar: uniE045
Encoding: 57413 57413 363
GlifName: uniE_045
Width: 1441
VWidth: 0
GlyphClass: 2
Flags: HW
LayerCount: 2
Fore
SplineSet
1259 -493 m 257
 1315 -640 l 257
 1144 -708 974 -748 766 -748 c 256
 414 -748 104 -599 104 -238 c 256
 104 196 556 411 1058 551 c 257
 612 711 l 258
 572 724 536 729 506 729 c 256
 379 729 309 640 287 448 c 257
 140 470 l 257
 168 701 283 886 508 886 c 256
 559 886 613 878 671 856 c 258
 1278 633 l 257
 1278 457 l 257
 1204 437 1117 412 1048 390 c 257
 1130 266 1244 158 1441 158 c 258
 1442 158 l 257
 1442 0 l 257
 1441 0 l 258
 1171 0 1008 154 898 340 c 257
 520 204 261 26 261 -238 c 256
 261 -471 458 -587 760 -587 c 256
 951 -587 1106 -550 1259 -493 c 257
EndSplineSet
EndChar

StartChar: uniE046
Encoding: 57414 57414 364
GlifName: uniE_046
Width: 1350
VWidth: 0
GlyphClass: 2
Flags: HW
LayerCount: 2
Fore
SplineSet
123 458 m 257
 155 650 237 883 468 883 c 256
 528 883 597 866 673 830 c 258
 1241 582 l 257
 1241 416 l 257
 839 141 504 0 0 0 c 256
 -43 0 -79 36 -79 79 c 256
 -79 122 -43 158 0 158 c 256
 434 158 737 260 1055 490 c 257
 604 689 l 258
 551 713 508 724 472 724 c 256
 361 724 298 616 268 434 c 257
 123 458 l 257
EndSplineSet
EndChar

StartChar: uniE047
Encoding: 57415 57415 365
GlifName: uniE_047
Width: 1382
VWidth: 0
GlyphClass: 2
Flags: HW
LayerCount: 2
Fore
SplineSet
123 458 m 257
 155 650 238 883 468 883 c 256
 528 883 597 866 673 830 c 258
 1241 582 l 257
 1241 416 l 257
 1180 374 1120 334 1062 299 c 257
 1138 221 1223 158 1381 158 c 258
 1382 158 l 257
 1382 0 l 257
 1381 0 l 258
 1168 0 1032 97 930 225 c 257
 648 74 370 0 0 0 c 256
 -43 0 -79 36 -79 79 c 256
 -79 122 -43 158 0 158 c 256
 434 158 737 260 1055 490 c 257
 604 689 l 258
 551 713 508 724 472 724 c 256
 361 724 298 616 268 434 c 257
 123 458 l 257
EndSplineSet
EndChar

StartChar: uniE048
Encoding: 57416 57416 366
GlifName: uniE_048
Width: 1239
VWidth: 0
GlyphClass: 2
Flags: HW
LayerCount: 2
Fore
SplineSet
1239 158 m 257
 1239 0 l 257
 1238 0 l 257
 1070 0 941 39 835 194 c 257
 766 62 605 0 443 0 c 256
 310 0 173 32 68 110 c 257
 136 242 l 257
 227 180 344 158 451 158 c 256
 617 158 735 233 735 341 c 256
 735 373 726 400 698 466 c 258
 518 886 l 257
 663 949 l 257
 880 440 l 258
 989 182 1050 158 1238 158 c 257
 1239 158 l 257
EndSplineSet
EndChar

StartChar: uniE049
Encoding: 57417 57417 367
GlifName: uniE_049
Width: 974
VWidth: 0
GlyphClass: 2
Flags: HW
LayerCount: 2
Fore
SplineSet
472 581 m 257
 618 640 l 257
 711 336 l 258
 754 198 814 158 974 158 c 257
 975 158 l 257
 975 0 l 257
 974 0 l 258
 870 0 793 23 728 67 c 257
 708 -212 470 -426 138 -548 c 257
 84 -400 l 257
 398 -285 577 -111 577 136 c 256
 577 239 555 355 472 581 c 257
EndSplineSet
EndChar

StartChar: uniE04A
Encoding: 57418 57418 368
GlifName: uniE_04A_
Width: 2727
VWidth: 0
GlyphClass: 2
Flags: HW
LayerCount: 2
Fore
SplineSet
2340 725 m 257
 2378 514 l 258
 2403 375 2423 278 2487 221 c 256
 2536 179 2607 158 2726 158 c 258
 2728 158 l 257
 2728 0 l 257
 2726 0 l 257
 2516 0 2391 70 2327 196 c 257
 2283 76 2188 0 2048 0 c 256
 1948 0 1828 46 1780 155 c 257
 1740 57 1660 0 1546 0 c 256
 1463 0 1392 25 1334 76 c 257
 1340 -280 1109 -497 724 -497 c 256
 334 -497 104 -294 104 92 c 256
 104 274 147 467 182 574 c 257
 327 530 l 257
 296 426 258 262 258 103 c 256
 258 -188 392 -338 724 -338 c 256
 1046 -338 1190 -198 1190 72 c 256
 1190 242 1145 384 1067 584 c 257
 1215 650 l 257
 1317 334 l 258
 1353 224 1404 158 1526 158 c 256
 1641 158 1699 220 1712 370 c 258
 1734 614 l 257
 1872 605 l 257
 1859 426 l 258
 1843 232 1926 158 2044 158 c 256
 2172 158 2222 249 2222 392 c 256
 2222 450 2217 516 2206 580 c 258
 2184 697 l 257
 2340 725 l 257
EndSplineSet
EndChar

StartChar: uniE04B
Encoding: 57419 57419 369
GlifName: uniE_04B_
Width: 1610
VWidth: 0
GlyphClass: 2
Flags: HW
LayerCount: 2
Fore
SplineSet
1462 724 m 257
 1490 592 1507 503 1507 360 c 256
 1507 268 1485 189 1447 130 c 256
 1393 45 1301 0 1185 0 c 256
 1065 0 975 63 924 148 c 257
 872 63 784 0 664 0 c 256
 532 0 439 76 389 174 c 257
 317 61 192 0 0 0 c 256
 -44 0 -79 35 -79 79 c 256
 -79 123 -44 158 0 158 c 256
 135 158 217 178 265 238 c 256
 311 297 325 394 325 542 c 258
 325 636 l 257
 482 636 l 257
 482 456 l 258
 482 346 496 262 536 212 c 256
 565 177 606 158 668 158 c 256
 731 158 773 178 802 216 c 256
 840 268 852 349 852 456 c 258
 852 626 l 257
 997 626 l 257
 997 456 l 258
 997 346 1010 263 1050 212 c 256
 1078 176 1119 158 1179 158 c 256
 1251 158 1297 179 1323 228 c 256
 1341 261 1350 307 1350 365 c 256
 1350 486 1334 577 1309 692 c 257
 1462 724 l 257
EndSplineSet
EndChar

StartChar: uniE04C
Encoding: 57420 57420 370
GlifName: uniE_04C_
Width: 1822
VWidth: 0
GlyphClass: 2
Flags: HW
LayerCount: 2
Fore
SplineSet
1462 724 m 257
 1495 479 l 258
 1511 371 1535 289 1585 235 c 256
 1634 183 1706 158 1821 158 c 258
 1822 158 l 257
 1822 0 l 257
 1821 0 l 257
 1655 0 1530 50 1452 156 c 257
 1402 64 1309 0 1185 0 c 256
 1065 0 975 64 924 149 c 257
 872 64 784 0 664 0 c 256
 532 0 439 76 389 174 c 257
 317 61 192 0 0 0 c 256
 -44 0 -79 35 -79 79 c 256
 -79 123 -44 158 0 158 c 256
 135 158 216 179 264 238 c 256
 311 297 325 393 325 542 c 258
 325 636 l 257
 482 636 l 257
 482 456 l 258
 482 346 495 263 535 212 c 256
 564 176 607 158 668 158 c 256
 732 158 773 179 802 217 c 256
 840 269 852 353 852 456 c 258
 852 626 l 257
 997 626 l 257
 997 456 l 258
 997 350 1009 266 1049 214 c 256
 1077 178 1117 158 1178 158 c 256
 1245 158 1289 177 1317 219 c 256
 1339 252 1350 298 1350 362 c 256
 1350 446 1334 547 1306 700 c 257
 1462 724 l 257
EndSplineSet
EndChar

StartChar: uniE04D
Encoding: 57421 57421 371
GlifName: uniE_04D_
Width: 2529
VWidth: 0
GlyphClass: 2
Flags: HW
LayerCount: 2
Fore
SplineSet
1327 278 m 257
 1503 601 1741 744 1940 744 c 256
 2133 744 2306 615 2306 402 c 256
 2306 342 2292 291 2267 246 c 257
 2319 186 2401 158 2529 158 c 258
 2530 158 l 257
 2530 0 l 257
 2529 0 l 258
 2368 0 2242 40 2154 129 c 257
 2036 39 1861 0 1703 0 c 256
 1578 0 1450 24 1343 72 c 257
 1329 -287 1112 -500 726 -500 c 256
 330 -500 104 -298 104 94 c 256
 104 276 147 467 182 574 c 257
 328 529 l 257
 295 427 258 258 258 100 c 256
 258 -195 393 -340 727 -340 c 256
 1055 -340 1190 -189 1190 71 c 256
 1190 253 1128 448 1078 581 c 257
 1225 644 l 257
 1271 525 1305 399 1327 278 c 257
1455 196 m 257
 1530 170 1618 158 1703 158 c 256
 1977 158 2149 261 2149 397 c 256
 2149 511 2063 587 1935 587 c 256
 1802 587 1615 495 1455 196 c 257
EndSplineSet
EndChar

StartChar: uniE04E
Encoding: 57422 57422 372
GlifName: uniE_04E_
Width: 1665
VWidth: 0
GlyphClass: 2
Flags: HW
LayerCount: 2
Fore
SplineSet
0 158 m 256
 124 158 203 184 253 232 c 256
 306 285 325 361 325 461 c 258
 325 636 l 257
 482 636 l 257
 482 461 l 258
 482 325 505 277 543 243 c 257
 739 627 1005 777 1215 777 c 256
 1389 777 1562 662 1562 455 c 256
 1562 153 1156 0 871 0 c 256
 652 0 478 30 390 166 c 257
 312 50 177 0 0 0 c 256
 -44 0 -79 35 -79 79 c 256
 -79 123 -44 158 0 158 c 256
675 174 m 257
 726 162 793 158 871 158 c 256
 1159 158 1404 305 1404 450 c 256
 1404 555 1323 619 1210 619 c 256
 1073 619 855 517 675 174 c 257
EndSplineSet
EndChar

StartChar: uniE04F
Encoding: 57423 57423 373
GlifName: uniE_04F_
Width: 1717
VWidth: 0
GlyphClass: 2
Flags: HW
LayerCount: 2
Fore
SplineSet
675 174 m 257
 726 162 793 158 871 158 c 256
 1159 158 1404 305 1404 450 c 256
 1404 555 1323 619 1210 619 c 256
 1073 619 855 517 675 174 c 257
482 636 m 257
 482 460 l 258
 482 324 505 281 543 243 c 257
 739 627 1005 777 1215 777 c 256
 1389 777 1562 662 1562 455 c 256
 1562 371 1528 297 1474 236 c 257
 1519 182 1592 158 1716 158 c 257
 1717 158 l 257
 1717 0 l 257
 1716 0 l 257
 1556 0 1432 40 1352 132 c 257
 1212 44 1027 0 871 0 c 256
 653 0 477 29 389 165 c 257
 311 51 178 0 0 0 c 256
 -43 0 -79 36 -79 79 c 256
 -79 122 -43 158 0 158 c 256
 118 158 201 181 254 233 c 256
 303 282 325 358 325 465 c 258
 325 636 l 257
 482 636 l 257
EndSplineSet
EndChar

StartChar: uniE050
Encoding: 57424 57424 374
GlifName: uniE_050
Width: 1606
VWidth: 0
GlyphClass: 2
Flags: HW
LayerCount: 2
Fore
SplineSet
584 158 m 257
 1217 163 1293 299 1293 447 c 256
 1293 552 1214 619 1099 619 c 256
 968 619 715 503 584 181 c 257
 584 158 l 257
414 158 m 257
 414 1290 l 257
 572 1290 l 257
 572 426 l 257
 738 673 939 777 1111 777 c 256
 1277 777 1450 662 1450 455 c 256
 1450 367 1429 289 1375 225 c 257
 1415 178 1498 158 1605 158 c 257
 1606 158 l 257
 1606 0 l 257
 1605 0 l 257
 1447 0 1335 35 1250 121 c 257
 1104 41 865 0 493 0 c 258
 88 0 l 257
 88 158 l 257
 414 158 l 257
EndSplineSet
EndChar

StartChar: uniE051
Encoding: 57425 57425 375
GlifName: uniE_051
Width: 1332
VWidth: 0
GlyphClass: 2
Flags: HW
LayerCount: 2
Fore
SplineSet
362 158 m 257
 995 163 1072 299 1072 447 c 256
 1072 552 992 619 877 619 c 256
 744 619 488 499 362 181 c 257
 362 158 l 257
0 158 m 258
 192 158 l 257
 192 1290 l 257
 350 1290 l 257
 350 426 l 257
 516 678 726 777 888 777 c 256
 1056 777 1229 662 1229 455 c 256
 1229 163 999 0 271 0 c 258
 0 0 l 258
 -44 0 -79 35 -79 79 c 256
 -79 123 -44 158 0 158 c 258
EndSplineSet
EndChar

StartChar: uniE052
Encoding: 57426 57426 376
GlifName: uniE_052
Width: 1384
VWidth: 0
GlyphClass: 2
Flags: HW
LayerCount: 2
Fore
SplineSet
362 158 m 257
 986 158 1072 299 1072 447 c 256
 1072 552 992 619 877 619 c 256
 744 619 488 499 362 181 c 257
 362 158 l 257
0 158 m 258
 192 158 l 257
 192 1290 l 257
 350 1290 l 257
 350 426 l 257
 516 678 725 777 882 777 c 256
 1056 777 1229 662 1229 455 c 256
 1229 367 1207 289 1153 225 c 257
 1195 177 1276 158 1383 158 c 257
 1384 158 l 257
 1384 0 l 257
 1383 0 l 257
 1225 0 1112 35 1028 121 c 257
 882 41 643 0 271 0 c 258
 0 0 l 258
 -44 0 -79 35 -79 79 c 256
 -79 123 -44 158 0 158 c 258
EndSplineSet
EndChar

StartChar: uniE053
Encoding: 57427 57427 377
GlifName: uniE_053
Width: 1199
VWidth: 0
GlyphClass: 2
Flags: HW
LayerCount: 2
Fore
SplineSet
1039 511 m 256
 1039 373 935 280 835 213 c 257
 938 179 1061 158 1199 158 c 258
 1200 158 l 257
 1200 0 l 257
 1199 0 l 258
 989 0 808 42 669 112 c 257
 417 8 261 -135 261 -321 c 256
 261 -534 502 -620 754 -620 c 256
 875 -620 995 -599 1093 -563 c 257
 1145 -708 l 257
 1028 -751 890 -777 752 -777 c 256
 420 -777 104 -650 104 -325 c 256
 104 -71 286 100 525 211 c 257
 414 293 284 399 165 500 c 257
 170 644 l 257
 281 740 453 812 630 812 c 256
 829 812 1039 704 1039 511 c 256
888 504 m 256
 888 577 788 657 630 657 c 256
 520 657 404 611 336 568 c 257
 334 544 l 257
 448 446 555 357 673 276 c 257
 799 337 888 418 888 504 c 256
EndSplineSet
EndChar

StartChar: uniE054
Encoding: 57428 57428 378
GlifName: uniE_054
Width: 1103
VWidth: 0
GlyphClass: 2
Flags: HW
LayerCount: 2
Fore
SplineSet
300 444 m 256
 300 304 422 233 586 233 c 256
 610 233 635 233 657 237 c 258
 963 296 l 257
 992 141 l 257
 482 44 l 258
 332 16 169 0 0 0 c 256
 -44 0 -79 36 -79 79 c 256
 -79 122 -44 158 0 158 c 256
 99 158 200 164 290 176 c 257
 204 229 142 314 142 440 c 256
 142 699 337 885 560 885 c 256
 732 885 848 791 920 700 c 257
 804 611 l 257
 754 674 673 727 562 727 c 256
 425 727 300 616 300 444 c 256
EndSplineSet
EndChar

StartChar: uniE055
Encoding: 57429 57429 379
GlifName: uniE_055
Width: 1089
VWidth: 0
GlyphClass: 2
Flags: HW
LayerCount: 2
Fore
SplineSet
115 644 m 257
 236 748 401 812 581 812 c 256
 767 812 976 708 976 508 c 256
 976 376 878 277 779 213 c 257
 857 185 985 158 1089 158 c 258
 1090 158 l 257
 1090 0 l 257
 1089 0 l 258
 909 0 745 52 619 110 c 257
 449 48 216 0 0 0 c 256
 -44 0 -79 35 -79 79 c 256
 -79 123 -44 158 0 158 c 256
 150 158 350 185 465 213 c 257
 353 297 224 402 109 500 c 257
 115 644 l 257
280 568 m 257
 278 544 l 257
 383 452 497 358 618 275 c 257
 741 329 832 424 832 502 c 256
 832 590 716 657 582 657 c 256
 465 657 354 616 280 568 c 257
EndSplineSet
EndChar

StartChar: uniE056
Encoding: 57430 57430 380
GlifName: uniE_056
Width: 1726
VWidth: 0
GlyphClass: 2
Flags: HW
LayerCount: 2
Fore
SplineSet
1246 1310 m 257
 1403 1310 l 257
 1403 543 l 258
 1403 399 1419 297 1477 235 c 256
 1526 182 1603 158 1725 158 c 258
 1726 158 l 257
 1726 0 l 257
 1725 0 l 257
 1583 0 1464 40 1388 122 c 256
 1362 148 1340 178 1324 214 c 257
 1304 176 1281 142 1251 116 c 256
 1155 25 1006 0 735 0 c 256
 439 0 104 18 104 390 c 256
 104 480 120 583 140 664 c 257
 291 628 l 257
 273 552 259 463 259 398 c 256
 259 178 435 158 745 158 c 256
 990 158 1113 173 1180 247 c 256
 1232 305 1246 397 1246 543 c 258
 1246 1310 l 257
EndSplineSet
EndChar

StartChar: uniE057
Encoding: 57431 57431 381
GlifName: uniE_057
Width: 1020
VWidth: 0
GlyphClass: 2
Flags: HW
LayerCount: 2
Fore
SplineSet
0 158 m 258
 140 158 l 258
 412 158 505 225 505 357 c 256
 505 521 275 738 35 912 c 257
 35 1087 l 257
 283 1249 603 1378 882 1439 c 257
 914 1284 l 257
 689 1234 418 1133 206 1007 c 257
 206 980 l 257
 441 805 662 587 662 350 c 256
 662 84 411 0 142 0 c 258
 0 0 l 258
 -44 0 -79 35 -79 79 c 257
 -79 123 -44 158 0 158 c 258
EndSplineSet
EndChar

StartChar: uniE058
Encoding: 57432 57432 382
GlifName: uniE_058
Width: 1084
VWidth: 0
GlyphClass: 2
Flags: HW
LayerCount: 2
Fore
SplineSet
0 158 m 258
 140 158 l 258
 412 158 505 225 505 356 c 256
 505 521 275 739 35 912 c 257
 35 1087 l 257
 283 1249 603 1379 883 1440 c 257
 915 1284 l 257
 690 1234 418 1133 206 1007 c 257
 206 980 l 257
 482 783 600 598 686 434 c 256
 777 259 848 158 1083 158 c 258
 1084 158 l 257
 1084 0 l 257
 1083 0 l 258
 847 0 708 92 622 268 c 257
 580 75 400 0 142 0 c 258
 0 0 l 258
 -44 0 -79 35 -79 79 c 257
 -79 123 -44 158 0 158 c 258
EndSplineSet
EndChar

StartChar: uniE059
Encoding: 57433 57433 383
GlifName: uniE_059
Width: 1495
VWidth: 0
GlyphClass: 2
Flags: HW
LayerCount: 2
Fore
SplineSet
1496 158 m 257
 1496 0 l 257
 1496 0 l 257
 1358 0 1235 29 1173 128 c 257
 1173 29 l 258
 1173 -330 964 -529 618 -529 c 256
 304 -529 104 -357 104 -66 c 256
 104 66 134 211 197 369 c 257
 340 310 l 257
 286 162 260 44 260 -57 c 256
 260 -257 385 -371 636 -371 c 256
 896 -371 1016 -243 1016 48 c 258
 1016 1290 l 257
 1174 1290 l 257
 1174 542 l 258
 1174 393 1199 297 1241 243 c 256
 1283 191 1354 158 1496 158 c 257
 1496 158 l 257
EndSplineSet
EndChar

StartChar: uniE05A
Encoding: 57434 57434 384
GlifName: uniE_05A_
Width: 609
VWidth: 0
GlyphClass: 2
Flags: HW
LayerCount: 2
Fore
SplineSet
442 426 m 258
 442 293 406 191 340 120 c 256
 266 40 151 0 0 0 c 256
 -43 0 -79 36 -79 79 c 256
 -79 122 -43 158 0 158 c 256
 117 158 190 177 233 226 c 256
 270 268 285 332 285 426 c 258
 285 1290 l 257
 442 1290 l 257
 442 426 l 258
EndSplineSet
EndChar

StartChar: uniE05B
Encoding: 57435 57435 385
GlifName: uniE_05B_
Width: 726
VWidth: 0
GlyphClass: 2
Flags: HW
LayerCount: 2
Fore
SplineSet
0 158 m 256
 122 158 194 178 234 229 c 256
 274 278 285 354 285 470 c 258
 285 1290 l 257
 442 1290 l 257
 442 474 l 258
 442 358 453 281 491 231 c 256
 531 178 604 158 726 158 c 258
 727 158 l 257
 727 0 l 257
 726 0 l 257
 550 0 406 63 363 197 c 257
 321 64 176 0 0 0 c 256
 -44 0 -79 35 -79 79 c 256
 -79 123 -44 158 0 158 c 256
EndSplineSet
EndChar

StartChar: uniE05C
Encoding: 57436 57436 386
GlifName: uniE_05C_
Width: 1391
VWidth: 0
GlyphClass: 2
Flags: HW
LayerCount: 2
Fore
SplineSet
543 224 m 257
 631 199 730 158 826 158 c 256
 926 158 986 194 986 321 c 256
 986 467 902 572 793 572 c 256
 641 572 561 406 543 224 c 257
1391 0 m 257
 1390 0 l 258
 1265 0 1169 36 1084 125 c 257
 1026 37 923 0 822 0 c 256
 716 0 611 29 530 61 c 256
 482 80 457 88 412 88 c 256
 322 88 261 24 261 -104 c 258
 261 -811 l 257
 104 -811 l 257
 104 -104 l 258
 104 86 214 229 390 243 c 257
 414 437 509 732 797 732 c 256
 1002 732 1120 558 1142 377 c 256
 1161 215 1238 158 1390 158 c 258
 1391 158 l 257
 1391 0 l 257
EndSplineSet
EndChar

StartChar: uniE05D
Encoding: 57437 57437 387
GlifName: uniE_05D_
Width: 1093
VWidth: 0
GlyphClass: 2
Flags: HW
LayerCount: 2
Fore
SplineSet
0 158 m 256
 116 158 170 211 225 324 c 256
 241 358 256 395 272 436 c 256
 336 598 440 748 640 748 c 256
 862 748 990 524 990 338 c 256
 990 157 854 0 658 0 c 256
 502 0 400 80 318 178 c 257
 249 67 146 0 0 0 c 256
 -44 0 -79 35 -79 79 c 256
 -79 123 -44 158 0 158 c 256
390 321 m 257
 449 240 546 158 658 158 c 256
 751 158 833 232 833 338 c 256
 833 471 742 592 635 592 c 256
 538 592 464 522 412 380 c 257
 390 321 l 257
EndSplineSet
EndChar

StartChar: uniE05E
Encoding: 57438 57438 388
GlifName: uniE_05E_
Width: 1300
VWidth: 0
GlyphClass: 2
Flags: HW
LayerCount: 2
Fore
SplineSet
0 158 m 256
 116 158 170 211 225 324 c 256
 241 358 256 395 272 436 c 256
 336 598 440 748 640 748 c 256
 844 748 969 558 988 382 c 256
 994 320 1018 276 1044 243 c 256
 1085 191 1157 158 1299 158 c 258
 1300 158 l 257
 1300 0 l 257
 1299 0 l 258
 1136 0 1010 48 935 152 c 257
 880 62 776 0 660 0 c 256
 504 0 400 80 318 178 c 257
 249 67 146 0 0 0 c 256
 -44 0 -79 35 -79 79 c 256
 -79 123 -44 158 0 158 c 256
390 321 m 257
 449 240 547 158 659 158 c 256
 752 158 833 232 833 338 c 256
 833 471 742 592 635 592 c 256
 538 592 464 522 412 380 c 258
 390 321 l 257
EndSplineSet
EndChar

StartChar: uniE05F
Encoding: 57439 57439 389
GlifName: uniE_05F_
Width: 1086
VWidth: 0
GlyphClass: 2
Flags: HW
LayerCount: 2
Fore
SplineSet
628 726 m 257
 391 696 255 586 255 470 c 256
 255 371 344 318 490 318 c 256
 541 318 602 326 652 342 c 257
 628 726 l 257
1087 0 m 257
 1086 0 l 257
 872 0 766 63 696 196 c 257
 637 174 560 165 490 165 c 256
 310 165 104 245 104 463 c 256
 104 713 368 840 618 882 c 257
 610 1028 l 257
 767 1038 l 257
 802 449 l 258
 814 252 864 158 1086 158 c 257
 1087 158 l 257
 1087 0 l 257
EndSplineSet
EndChar

StartChar: uniE060
Encoding: 57440 57440 390
GlifName: uniE_060
Width: 1353
VWidth: 0
GlyphClass: 2
Flags: HW
LayerCount: 2
Fore
SplineSet
0 158 m 256
 110 158 215 168 302 188 c 257
 208 256 132 352 132 479 c 256
 132 616 226 744 334 802 c 257
 161 865 l 257
 218 1016 l 257
 698 831 l 258
 982 721 1250 592 1250 324 c 256
 1250 146 1127 0 897 0 c 256
 789 0 638 25 497 76 c 257
 358 24 183 0 0 0 c 256
 -44 0 -79 35 -79 79 c 256
 -79 123 -44 158 0 158 c 256
488 242 m 257
 603 296 673 376 673 496 c 256
 673 615 630 714 514 714 c 256
 411 714 286 627 286 483 c 256
 286 377 372 297 488 242 c 257
660 191 m 257
 750 168 839 158 898 158 c 256
 1037 158 1094 225 1094 326 c 256
 1094 451 974 548 797 622 c 257
 851 445 784 283 660 191 c 257
EndSplineSet
EndChar

StartChar: uniE061
Encoding: 57441 57441 391
GlifName: uniE_061
Width: 1053
VWidth: 0
GlyphClass: 2
Flags: HW
LayerCount: 2
Fore
SplineSet
312 183 m 257
 579 227 707 329 707 473 c 256
 707 597 654 647 564 647 c 256
 425 647 316 491 312 183 c 257
1054 0 m 257
 1053 0 l 258
 881 0 798 -61 798 -213 c 258
 798 -442 l 257
 664 -528 l 257
 407 -500 219 -277 170 5 c 257
 114 1 62 0 0 0 c 257
 -43 0 -79 36 -79 79 c 256
 -79 122 -43 158 0 158 c 257
 59 158 106 159 158 163 c 257
 165 510 284 805 564 805 c 256
 736 805 848 680 848 482 c 256
 848 234 619 69 322 24 c 257
 356 -181 500 -343 638 -364 c 257
 654 -356 l 257
 654 -192 l 258
 654 36 837 158 1053 158 c 258
 1054 158 l 257
 1054 0 l 257
EndSplineSet
EndChar

StartChar: uniE062
Encoding: 57442 57442 392
GlifName: uniE_062
Width: 947
VWidth: 0
GlyphClass: 2
Flags: HW
LayerCount: 2
Fore
SplineSet
684 157 m 257
 676 365 612 596 470 596 c 256
 376 596 277 470 277 317 c 256
 277 195 344 154 486 154 c 256
 552 154 619 155 684 157 c 257
825 0 m 257
 777 -271 548 -444 150 -545 c 257
 104 -395 l 257
 449 -307 627 -168 670 2 c 257
 606 1 541 0 476 0 c 256
 284 0 129 93 129 314 c 256
 129 523 261 755 471 755 c 256
 763 755 831 379 837 158 c 257
 947 158 l 257
 947 0 l 257
 825 0 l 257
EndSplineSet
EndChar

StartChar: uniE063
Encoding: 57443 57443 393
GlifName: uniE_063
Width: 1097
VWidth: 0
GlyphClass: 2
Flags: HW
LayerCount: 2
Fore
SplineSet
695 562 m 257
 596 433 458 299 346 213 c 257
 346 193 l 257
 399 171 481 155 551 155 c 256
 704 155 798 190 798 267 c 256
 798 323 756 452 695 562 c 257
691 800 m 257
 767 939 826 1090 826 1290 c 257
 983 1290 l 257
 983 1028 889 848 782 677 c 257
 865 541 945 383 945 265 c 256
 945 35 701 0 558 0 c 256
 412 0 272 40 174 100 c 257
 174 265 l 257
 316 370 487 515 607 678 c 257
 482 863 275 1031 104 1149 c 257
 194 1278 l 257
 372 1155 563 980 691 800 c 257
EndSplineSet
EndChar

StartChar: uniE064
Encoding: 57444 57444 394
GlifName: uniE_064
Width: 1432
VWidth: 0
GlyphClass: 2
Flags: HW
LayerCount: 2
Fore
SplineSet
520 402 m 257
 362 396 l 257
 362 715 304 960 176 1256 c 257
 321 1317 l 257
 458 999 520 734 520 402 c 257
1433 0 m 257
 1431 0 l 257
 1221 0 1071 82 1010 254 c 257
 875 49 576 0 105 0 c 257
 105 158 l 257
 789 158 951 251 951 542 c 258
 951 1290 l 257
 1108 1290 l 257
 1108 543 l 258
 1108 401 1127 304 1171 246 c 256
 1215 188 1291 158 1431 158 c 258
 1433 158 l 257
 1433 0 l 257
EndSplineSet
EndChar

StartChar: uniE065
Encoding: 57445 57445 395
GlifName: uniE_065
Width: 1858
VWidth: 0
GlyphClass: 2
Flags: HW
LayerCount: 2
Fore
SplineSet
1655 618 m 257
 1629 524 1601 414 1601 334 c 256
 1601 226 1642 158 1858 158 c 258
 1859 158 l 257
 1859 0 l 257
 1858 0 l 257
 1616 0 1507 92 1469 242 c 257
 1337 64 1058 0 756 0 c 256
 312 0 104 173 104 468 c 256
 104 561 126 667 170 782 c 257
 314 725 l 257
 280 628 262 543 262 470 c 256
 262 264 410 158 786 158 c 256
 1274 158 1450 315 1506 655 c 257
 1655 618 l 257
EndSplineSet
EndChar

StartChar: uniE066
Encoding: 57446 57446 396
GlifName: uniE_066
Width: 921
VWidth: 0
GlyphClass: 2
Flags: HW
LayerCount: 2
Fore
SplineSet
668 410 m 257
 600 390 529 378 451 378 c 256
 261 378 105 465 105 685 c 256
 105 892 233 1130 446 1130 c 256
 780 1130 818 652 818 468 c 256
 818 48 607 0 0 0 c 256
 -44 0 -79 35 -79 79 c 256
 -79 122 -44 158 0 158 c 256
 580 158 668 182 668 410 c 257
658 559 m 257
 644 769 578 973 444 973 c 256
 350 973 251 846 251 693 c 256
 251 571 317 528 459 528 c 256
 533 528 596 539 658 559 c 257
EndSplineSet
EndChar

StartChar: uniE067
Encoding: 57447 57447 397
GlifName: uniE_067
Width: 1861
VWidth: 0
GlyphClass: 2
Flags: HW
LayerCount: 2
Fore
SplineSet
1376 72 m 257
 1224 20 1073 0 863 0 c 256
 455 0 102 46 102 425 c 256
 102 551 140 661 172 755 c 257
 320 705 l 257
 290 613 262 520 262 433 c 256
 262 216 423 158 863 158 c 256
 997 158 1091 166 1194 188 c 257
 1093 262 1029 371 1029 517 c 256
 1029 741 1179 882 1381 882 c 256
 1579 882 1734 741 1734 518 c 256
 1734 371 1670 260 1564 186 c 257
 1650 167 1750 158 1861 158 c 257
 1862 158 l 257
 1862 0 l 257
 1861 0 l 257
 1687 0 1512 23 1376 72 c 257
1378 238 m 257
 1503 292 1576 377 1576 512 c 256
 1576 652 1499 724 1381 724 c 256
 1261 724 1187 652 1187 512 c 256
 1187 379 1262 292 1378 238 c 257
EndSplineSet
EndChar

StartChar: uniE068
Encoding: 57448 57448 398
GlifName: uniE_068
Width: 961
VWidth: 0
GlyphClass: 2
Flags: HW
LayerCount: 2
Fore
SplineSet
0 158 m 256
 106 158 208 166 298 186 c 257
 195 260 129 369 129 517 c 256
 129 741 279 882 481 882 c 256
 679 882 832 741 832 518 c 256
 832 371 767 261 664 186 c 257
 750 166 859 158 961 158 c 257
 962 158 l 257
 962 0 l 257
 961 0 l 257
 789 0 615 24 480 72 c 257
 341 22 176 0 0 0 c 256
 -44 0 -79 35 -79 79 c 256
 -79 123 -44 158 0 158 c 256
481 236 m 257
 601 290 675 378 675 512 c 256
 675 652 599 724 481 724 c 256
 361 724 286 652 286 512 c 256
 286 378 362 290 481 236 c 257
EndSplineSet
EndChar

StartChar: uniE069
Encoding: 57449 57449 399
GlifName: uniE_069
Width: 1481
VWidth: 0
GlyphClass: 2
Flags: HW
LayerCount: 2
Fore
SplineSet
1211 3 m 257
 1145 1 1078 0 1012 0 c 256
 820 0 665 93 665 314 c 256
 665 523 797 755 1007 755 c 256
 1293 755 1364 395 1372 158 c 257
 1482 158 l 257
 1482 0 l 257
 1366 0 l 257
 1322 -352 1058 -529 706 -529 c 256
 382 -529 104 -377 104 -2 c 256
 104 152 144 294 204 440 c 257
 345 377 l 257
 291 244 261 118 261 -2 c 256
 261 -253 423 -371 710 -371 c 256
 1002 -371 1179 -239 1211 3 c 257
1218 157 m 257
 1212 377 1144 596 1005 596 c 256
 911 596 812 470 812 317 c 256
 812 195 880 154 1022 154 c 256
 1088 154 1154 155 1218 157 c 257
EndSplineSet
EndChar

StartChar: uniFD3E
Encoding: 64830 64830 428
GlifName: uniF_D_3E_
Width: 762
VWidth: 0
GlyphClass: 2
Flags: HW
LayerCount: 2
Fore
SplineSet
210 715 m 256
 210 642 271 581 344 581 c 256
 417 581 478 642 478 715 c 256
 478 788 417 850 344 850 c 256
 271 850 210 788 210 715 c 256
654 -128 m 257
 528 -212 l 257
 400 -11 308 222 278 490 c 257
 180 518 108 608 108 715 c 256
 108 822 180 912 278 940 c 257
 308 1208 400 1441 528 1642 c 257
 654 1558 l 257
 536 1376 462 1169 435 931 c 257
 519 897 580 812 580 715 c 256
 580 618 519 534 435 500 c 257
 462 262 536 54 654 -128 c 257
EndSplineSet
EndChar

StartChar: uniFD3F
Encoding: 64831 64831 429
GlifName: uniF_D_3F_
Width: 762
VWidth: 0
GlyphClass: 2
Flags: HW
LayerCount: 2
Fore
SplineSet
553 715 m 256
 553 788 491 850 418 850 c 256
 345 850 284 788 284 715 c 256
 284 642 345 581 418 581 c 256
 491 581 553 642 553 715 c 256
108 1558 m 257
 234 1642 l 257
 362 1441 454 1208 484 940 c 257
 582 912 654 822 654 715 c 256
 654 608 582 518 484 490 c 257
 454 222 362 -11 234 -212 c 257
 108 -128 l 257
 226 54 300 262 327 500 c 257
 243 534 182 618 182 715 c 256
 182 812 243 897 327 931 c 257
 300 1169 226 1376 108 1558 c 257
EndSplineSet
EndChar

StartChar: v
Encoding: 118 118 527
GlifName: v
Width: 964
VWidth: 0
GlyphClass: 2
Flags: HW
LayerCount: 2
Fore
SplineSet
774 932 m 257
 941 932 l 257
 574 1 l 257
 392 1 l 257
 24 932 l 257
 191 932 l 257
 483 161 l 257
 774 932 l 257
EndSplineSet
EndChar

StartChar: w
Encoding: 119 119 528
GlifName: w
Width: 1469
VWidth: 0
GlyphClass: 2
Flags: HW
LayerCount: 2
Fore
SplineSet
1243 932 m 257
 1407 932 l 257
 1130 0 l 257
 948 0 l 257
 736 750 l 257
 522 1 l 257
 341 1 l 257
 64 932 l 257
 227 932 l 257
 436 172 l 257
 650 932 l 257
 820 932 l 257
 1036 172 l 257
 1243 932 l 257
EndSplineSet
EndChar

StartChar: x
Encoding: 120 120 529
GlifName: x
Width: 994
VWidth: 0
GlyphClass: 2
Flags: HW
LayerCount: 2
Fore
SplineSet
759 932 m 257
 953 932 l 257
 586 462 l 257
 953 0 l 257
 758 0 l 257
 498 349 l 257
 237 0 l 257
 42 0 l 257
 408 462 l 257
 42 932 l 257
 236 932 l 257
 498 575 l 257
 759 932 l 257
EndSplineSet
EndChar

StartChar: y
Encoding: 121 121 530
GlifName: y
Width: 983
VWidth: 0
GlyphClass: 2
Flags: HW
LayerCount: 2
Fore
SplineSet
794 932 m 257
 960 932 l 257
 596 45 l 258
 501 -181 392 -410 90 -410 c 258
 32 -410 l 257
 32 -271 l 257
 90 -271 l 258
 260 -271 338 -183 422 20 c 257
 404 20 l 257
 24 932 l 257
 191 932 l 257
 496 194 l 257
 794 932 l 257
EndSplineSet
EndChar

StartChar: z
Encoding: 122 122 534
GlifName: z
Width: 884
VWidth: 0
GlyphClass: 2
Flags: HW
LayerCount: 2
Fore
SplineSet
84 799 m 257
 84 932 l 257
 832 932 l 257
 832 796 l 257
 252 134 l 257
 832 134 l 257
 832 0 l 257
 84 0 l 257
 84 138 l 257
 664 799 l 257
 84 799 l 257
EndSplineSet
EndChar

